<svg width="487" height="273" viewBox="0 0 487 273" fill="none" xmlns="http://www.w3.org/2000/svg">
<path fill-rule="evenodd" clip-rule="evenodd" d="M22.4989 269.987C22.4989 269.987 0 248.522 0 216.921C0 185.319 24.2597 150.956 32.8773 135.854C41.4949 120.753 47.9024 102.95 37.4226 73.9661C26.9428 44.9823 46.9492 15.8349 83.4245 5.30471C119.9 -5.2255 166.261 1.21077 187.515 13.3457C208.77 25.4807 245.183 47.5979 304.693 36.5393C364.202 25.4807 425.937 50.5807 438.593 97.6263C451.249 144.672 431.648 197.792 394.725 230.865C357.802 263.938 336.531 267.806 336.531 267.806L22.4989 269.987Z" fill="#E1EAF1"/>
<path fill-rule="evenodd" clip-rule="evenodd" d="M57.3258 269.2C57.3258 269.2 32.9831 252.008 42.8418 213.378C52.7004 174.749 61.9512 171.854 57.3258 134.46C52.7004 97.067 59.6993 69.5871 97.0766 51.2967C134.454 33.0064 166.027 44.2774 195.482 51.2967C224.937 58.316 290.169 32.8628 315.953 35.1454C341.736 37.428 400.575 40.2288 407.121 107.488C413.666 174.748 370.744 227.89 358.665 248.888C346.586 269.885 338.316 266.412 338.316 266.412L57.3258 269.2Z" fill="#C4D2E3" stroke="#C4D2E3"/>
<path fill-rule="evenodd" clip-rule="evenodd" d="M103.884 270.095C103.884 270.095 86.9096 200.546 89.2936 176.25C91.6776 151.955 102.192 139.39 112.884 132.387C123.576 125.383 166.791 122.962 190.272 139.217C213.754 155.472 218.126 143.412 245.188 143.412C272.249 143.412 310.595 157.797 336.96 220.39C363.325 282.984 358.141 270.895 358.141 270.895L103.884 270.095Z" fill="#B2C3DA"/>
<path fill-rule="evenodd" clip-rule="evenodd" d="M447.238 215.986C442.856 215.986 438.598 214.729 435.778 211.673C429.346 204.7 438.066 195.959 440.026 187.915C441.191 183.132 443.962 181.29 447.256 181.29C451.688 181.29 457.068 184.625 460.759 188.625C467.192 195.598 467.715 205.579 461.928 210.918C458.676 213.919 452.855 215.986 447.238 215.986Z" fill="#D7E2EC"/>
<path fill-rule="evenodd" clip-rule="evenodd" d="M420.462 64.7512C414.255 64.7512 408.559 55.7418 402.508 51.7689C392.668 45.309 399.133 35.6682 406.597 31.7284C408.871 30.5282 411.312 29.9579 413.717 29.9579C419.203 29.9579 424.505 32.92 427.244 38.109C431.184 45.5726 431.064 60.0021 423.6 63.9419C422.538 64.5028 421.493 64.7512 420.462 64.7512Z" fill="#D7E2EC"/>
<path fill-rule="evenodd" clip-rule="evenodd" d="M485.228 270.437H17.132C16.5034 270.437 15.9944 269.928 15.9944 269.3C15.9944 268.671 16.5034 268.161 17.132 268.161H485.228C485.856 268.161 486.366 268.671 486.366 269.3C486.366 269.928 485.856 270.437 485.228 270.437Z" fill="#A1B5D3"/>
<path fill-rule="evenodd" clip-rule="evenodd" d="M470.61 162.702C470.61 164.491 469.16 165.942 467.37 165.942C465.581 165.942 464.13 164.491 464.13 162.702C464.13 160.912 465.581 159.462 467.37 159.462C469.16 159.462 470.61 160.912 470.61 162.702Z" fill="#131232"/>
<path fill-rule="evenodd" clip-rule="evenodd" d="M446.85 252.702C446.85 254.093 445.722 255.222 444.33 255.222C442.939 255.222 441.81 254.093 441.81 252.702C441.81 251.31 442.939 250.182 444.33 250.182C445.722 250.182 446.85 251.31 446.85 252.702Z" fill="#53609D"/>
<path fill-rule="evenodd" clip-rule="evenodd" d="M56.6104 50.3814C56.6104 52.1714 55.1603 53.6214 53.3704 53.6214C51.5812 53.6214 50.1304 52.1714 50.1304 50.3814C50.1304 48.5922 51.5812 47.1414 53.3704 47.1414C55.1603 47.1414 56.6104 48.5922 56.6104 50.3814Z" fill="#53609D"/>
<path fill-rule="evenodd" clip-rule="evenodd" d="M22.8761 243.289C22.8761 245.19 21.3361 246.731 19.4353 246.731C17.5345 246.731 15.9944 245.19 15.9944 243.289C15.9944 241.389 17.5345 239.848 19.4353 239.848C21.3361 239.848 22.8761 241.389 22.8761 243.289Z" fill="#131232"/>
<path fill-rule="evenodd" clip-rule="evenodd" d="M445.055 37.3818C444.751 38.8002 443.356 39.7046 441.937 39.4014C440.518 39.099 439.614 37.703 439.917 36.2838C440.219 34.8654 441.615 33.9611 443.034 34.2642C444.453 34.5674 445.358 35.9627 445.055 37.3818Z" fill="#F2AE50"/>
<path fill-rule="evenodd" clip-rule="evenodd" d="M106.753 20.667C106.449 22.0854 105.054 22.9905 103.635 22.6874C102.216 22.3842 101.312 20.9882 101.615 19.5698C101.918 18.1506 103.313 17.2463 104.732 17.5487C106.151 17.8518 107.056 19.2479 106.753 20.667Z" fill="#F2AE50"/>
<path fill-rule="evenodd" clip-rule="evenodd" d="M466.7 96.5219C466.397 97.9403 465.001 98.8447 463.582 98.5423C462.163 98.2391 461.258 96.8431 461.561 95.4247C461.865 94.0055 463.26 93.1012 464.679 93.4036C466.098 93.7067 467.003 95.1028 466.7 96.5219Z" fill="#53609D"/>
<path fill-rule="evenodd" clip-rule="evenodd" d="M277.589 32.6536C277.352 33.766 276.257 34.4752 275.145 34.2376C274.032 34 273.322 32.9056 273.56 31.7932C273.798 30.6801 274.892 29.9709 276.004 30.2085C277.118 30.4461 277.827 31.5412 277.589 32.6536Z" fill="#131232"/>
<path fill-rule="evenodd" clip-rule="evenodd" d="M175.84 83.014C175.84 78.5241 172.2 74.8837 167.71 74.8837C172.2 74.8837 175.84 71.2434 175.84 66.7535C175.84 71.2434 179.481 74.8837 183.97 74.8837C179.481 74.8837 175.84 78.5241 175.84 83.014Z" fill="#FFFFFE"/>
<path fill-rule="evenodd" clip-rule="evenodd" d="M271.354 123.891C271.354 120.594 268.681 117.92 265.383 117.92C268.681 117.92 271.354 115.246 271.354 111.949C271.354 115.246 274.027 117.92 277.325 117.92C274.027 117.92 271.354 120.594 271.354 123.891Z" fill="#FFFFFE"/>
<path fill-rule="evenodd" clip-rule="evenodd" d="M232.326 152.647C232.326 146.584 227.41 141.667 221.346 141.667C227.41 141.667 232.326 136.752 232.326 130.688C232.326 136.752 237.241 141.667 243.305 141.667C237.241 141.667 232.326 146.584 232.326 152.647Z" fill="#FFFFFE"/>
<path fill-rule="evenodd" clip-rule="evenodd" d="M270.231 67.9329C270.231 62.2506 265.625 57.6441 259.943 57.6441C265.625 57.6441 270.231 53.0368 270.231 47.3546C270.231 53.0368 274.838 57.6441 280.521 57.6441C274.838 57.6441 270.231 62.2506 270.231 67.9329Z" fill="#FDF1E0"/>
<path fill-rule="evenodd" clip-rule="evenodd" d="M304.627 74.8838C304.627 71.7496 302.086 69.208 298.951 69.208C302.086 69.208 304.627 66.6671 304.627 63.533C304.627 66.6671 307.167 69.208 310.302 69.208C307.167 69.208 304.627 71.7496 304.627 74.8838Z" fill="#FFFFFE"/>
<path fill-rule="evenodd" clip-rule="evenodd" d="M194.496 162.967L194.472 162.885L184.048 126.621L184.093 126.587C183.624 125.669 182.409 123.701 179.923 121.967C175.625 118.97 175.112 114.004 175.112 114.004C172.817 111.782 170.231 109.887 167.888 107.718C167.643 107.491 167.388 107.244 167.317 106.918C167.237 106.555 167.406 106.184 167.614 105.876C168.823 104.084 171.046 103.825 172.894 104.653C173.977 105.138 174.945 105.827 175.853 106.586C176.283 106.945 177.752 107.933 178.198 108.591L169.906 90.8866C169.17 89.3142 169.651 87.5199 170.977 86.9C171.639 86.589 172.392 86.6293 173.071 86.9425C173.502 87.1412 173.895 87.4609 174.225 87.8612C174.199 87.7309 174.184 87.6546 174.184 87.6546C183.896 79.4883 195.879 107.284 195.879 107.284L199.279 115.308L228.123 168.788C232.202 176.547 229.059 186.142 221.178 189.984C221.065 190.04 220.951 190.088 220.836 190.14C218.524 191.476 215.842 192.242 212.981 192.242H156.216L143.984 163.171L194.496 162.967Z" fill="#F4BE99"/>
<path fill-rule="evenodd" clip-rule="evenodd" d="M203.742 192.242C203.742 192.242 202.324 188.302 200.606 183.161C200.197 182.363 199.848 181.52 199.572 180.628L197.576 173.684C197.049 171.938 196.552 170.225 196.124 168.63L194.496 162.967L185.552 163.003C184.9 163.009 184.179 163.012 183.354 163.012L183.328 163.013L203.742 192.242Z" fill="#F2B292"/>
<path fill-rule="evenodd" clip-rule="evenodd" d="M186.253 110.401C186.327 110.401 186.402 110.378 186.466 110.33C186.626 110.213 186.661 109.987 186.543 109.827C182.92 104.913 178.049 107.568 178.001 107.595C177.828 107.693 177.767 107.911 177.864 108.085C177.96 108.257 178.18 108.319 178.353 108.224C178.53 108.125 182.723 105.861 185.963 110.255C186.034 110.35 186.142 110.401 186.253 110.401Z" fill="#E98772"/>
<path fill-rule="evenodd" clip-rule="evenodd" d="M174.019 87.7914C175.516 89.6771 176.908 91.6607 178.142 93.7227C178.757 94.7552 179.314 95.8208 179.78 96.9138C180.239 97.9988 180.611 99.1652 180.551 100.265L180.55 100.288C180.539 100.486 180.691 100.656 180.89 100.666C181.089 100.677 181.258 100.525 181.269 100.327V100.317C181.308 98.9787 180.868 97.7821 180.375 96.6589C179.868 95.535 179.279 94.4607 178.634 93.4254C177.339 91.3561 175.902 89.3948 174.349 87.5178C174.274 87.4263 174.138 87.4134 174.047 87.489C173.957 87.5631 173.943 87.6963 174.016 87.7878L174.019 87.7914Z" fill="#E98772"/>
<path fill-rule="evenodd" clip-rule="evenodd" d="M176.522 86.7647C177.472 87.4184 178.325 88.2846 179.088 89.1839C179.852 90.0932 180.523 91.0789 181.126 92.1027C181.718 93.1338 182.239 94.2059 182.683 95.3096C182.919 95.8561 183.094 96.4271 183.303 96.9829L183.819 98.6929L183.825 98.7131C183.882 98.9031 184.083 99.0111 184.274 98.9535C184.463 98.8959 184.571 98.6951 184.514 98.505L184.512 98.4985L183.951 96.7604C183.727 96.1938 183.537 95.6149 183.285 95.0598C182.809 93.938 182.254 92.8501 181.628 91.8047C180.989 90.7664 180.282 89.7685 179.479 88.8491C178.667 87.9332 177.804 87.0764 176.754 86.3823C176.651 86.3147 176.512 86.3427 176.445 86.4457C176.378 86.5472 176.404 86.684 176.504 86.7524L176.522 86.7647Z" fill="#E98772"/>
<path fill-rule="evenodd" clip-rule="evenodd" d="M180.448 87.0411C181.826 88.484 183.109 90.0428 184.218 91.6995C184.765 92.5311 185.291 93.3815 185.704 94.2779C186.119 95.1699 186.463 96.0973 186.613 97.0434L186.615 97.052C186.645 97.2486 186.829 97.3825 187.026 97.3515C187.222 97.3199 187.356 97.1355 187.325 96.939L187.324 96.9303C187.131 95.8842 186.739 94.9151 186.284 93.9942C185.828 93.0697 185.267 92.2129 184.689 91.377C183.511 89.7123 182.184 88.178 180.742 86.7416C180.66 86.6603 180.527 86.6603 180.446 86.7423C180.366 86.823 180.364 86.9533 180.442 87.0354L180.448 87.0411Z" fill="#E98772"/>
<path fill-rule="evenodd" clip-rule="evenodd" d="M63.4822 215.771L77.407 177.814C79.0644 169.485 86.9873 163.171 96.5201 163.171L135.416 162.861L179.238 163.029V192.242H165.638L172.657 268.437L76.1614 268.983L76.7021 217.388L63.4822 215.771Z" fill="#53609D"/>
<path fill-rule="evenodd" clip-rule="evenodd" d="M165.638 192.242H179.238V163.029L138.114 162.872V163.342C153.547 164.861 165.567 176.87 165.567 191.471L165.638 192.242Z" fill="#515E9B"/>
<path fill-rule="evenodd" clip-rule="evenodd" d="M188.273 141.31C188.471 141.309 190.872 120.913 190.872 120.913L184.092 126.584C184.092 126.585 184.092 126.586 184.093 126.587L184.048 126.621C184.048 126.621 184.051 126.632 184.057 126.652C184.058 126.655 184.058 126.658 184.059 126.66L184.06 126.664C184.061 126.667 184.062 126.669 184.063 126.672C184.064 126.676 184.064 126.679 184.066 126.683L184.066 126.686C184.067 126.687 184.067 126.689 184.068 126.691C184.069 126.692 184.069 126.694 184.069 126.695L184.071 126.701L188.268 141.304C188.27 141.308 188.271 141.31 188.273 141.31Z" fill="#F2B292"/>
<path fill-rule="evenodd" clip-rule="evenodd" d="M133.432 226.675L139.956 193.795C140.29 192.111 141.942 191.006 143.626 191.34L157.85 194.162C159.535 194.496 160.64 196.148 160.306 197.833L153.782 230.713C153.448 232.398 151.796 233.502 150.111 233.167L141.71 231.501L135.887 230.346C134.203 230.012 133.098 228.359 133.432 226.675Z" fill="#16171B"/>
<path fill-rule="evenodd" clip-rule="evenodd" d="M57.7194 243.781L64.1332 215.85L93.2968 219.418L91.6955 226.523L91.8438 226.486L123.545 218.638L123.573 218.677C124.448 218.238 126.091 217.193 127.537 215.033C130.195 211.06 134.66 210.951 134.66 210.951C135.52 210.05 136.322 209.087 137.115 208.115L136.372 211.858L136.558 211.957C138.573 213.025 140.847 213.498 143.121 213.32C147.328 212.992 154.203 212.455 157.061 212.233C157.933 212.164 158.77 212.629 159.146 213.418C163.226 221.994 145.707 229.842 141.71 231.501H141.71L141.569 231.559L141.406 231.626L141.254 231.688L141.126 231.739L141.007 231.786L140.961 231.804L140.901 231.827L134.045 234.398L79.768 261.113C79.264 261.355 78.7542 261.566 78.2394 261.748C75.6078 262.954 72.5795 263.346 69.539 262.648C61.0653 260.702 55.7733 252.254 57.7194 243.781Z" fill="#F4BE99"/>
<path fill-rule="evenodd" clip-rule="evenodd" d="M91.6955 226.523L91.8438 226.486C92.7121 222.658 92.3097 223.871 92.9663 220.883L91.6955 226.523Z" fill="#62639D"/>
<path fill-rule="evenodd" clip-rule="evenodd" d="M59.7873 234.776C59.919 234.73 79.9451 227.7 89.5636 227.05L91.8438 226.486L91.6955 226.523L92.9663 220.883C93.0549 220.484 93.1614 220.009 93.2925 219.436L93.2651 219.433L59.7866 234.776H59.7873Z" fill="#F2B292"/>
<path fill-rule="evenodd" clip-rule="evenodd" d="M96.0046 219.778C96.1724 219.778 96.3214 219.66 96.356 219.492L100.544 199.211C100.584 199.016 100.458 198.825 100.264 198.785C100.238 198.779 100.213 198.776 100.188 198.776C100.024 198.776 99.8732 198.895 99.8386 199.064L95.7181 219.019L81.6169 217.224C81.6003 217.222 81.5845 217.221 81.5679 217.221C81.3922 217.221 81.2374 217.355 81.2144 217.536C81.1892 217.733 81.3289 217.913 81.5254 217.939L89.503 218.954L93.2967 219.418L93.2931 219.436L95.9578 219.775L96.0046 219.778Z" fill="#3C4A8D"/>
<path fill-rule="evenodd" clip-rule="evenodd" d="M99.3067 87.9757C100.194 81.8607 105.773 77.5105 111.956 78.2096C113.597 78.3947 115.114 78.9239 116.453 79.7065C118.444 76.4507 122.189 74.4563 126.23 74.9135C128.539 75.1741 130.572 76.2001 132.122 77.7006C134.353 76.5824 136.919 76.0691 139.583 76.37C146.905 77.198 152.17 83.8047 151.342 91.1264C150.954 94.5507 149.299 97.5207 146.902 99.6318L149.614 114.117C150.392 118.275 147.652 122.276 143.495 123.056L111.365 129.07C107.207 129.849 103.205 127.108 102.426 122.95L97.1625 94.8323C96.6772 92.2374 97.5621 89.703 99.3067 87.9757Z" fill="#16171B"/>
<path fill-rule="evenodd" clip-rule="evenodd" d="M146.135 95.8957C146.254 95.8957 146.371 95.8367 146.44 95.728C152.178 86.6459 144.274 80.8225 144.194 80.7649C144.032 80.6476 143.808 80.6864 143.691 80.847C143.576 81.0083 143.613 81.2329 143.774 81.3496C144.079 81.5699 151.203 86.8432 145.831 95.3435C145.725 95.512 145.775 95.7344 145.942 95.8403C146.002 95.8777 146.069 95.8957 146.135 95.8957Z" fill="#FDF1E0"/>
<path fill-rule="evenodd" clip-rule="evenodd" d="M104.504 116.371L105.206 116.24L112.299 100.995C114.044 100.743 115.679 100.1 117.097 99.14C118.458 100.613 120.329 101.628 122.478 101.872C125.065 102.164 127.508 101.279 129.29 99.6519C131.267 101.39 133.772 102.566 136.585 102.885C139.803 103.249 142.882 102.435 145.394 100.787L150.334 127.178C151.016 130.824 150.267 134.398 148.503 137.35C146.747 141.693 142.972 145.103 138.114 146.222V163.65C138.114 169.704 133.16 174.657 127.106 174.657H123.635C117.581 174.657 112.627 169.704 112.627 163.65V143.861C110.842 141.899 109.55 139.445 109.027 136.646L108.124 131.827L107.421 131.959C103.251 132.74 99.2 129.966 98.4195 125.796L98.3403 125.373C97.5598 121.203 100.333 117.152 104.504 116.371Z" fill="#F4BE99"/>
<path fill-rule="evenodd" clip-rule="evenodd" d="M123.64 152.71H127.157C131.511 152.71 135.285 150.141 137.066 146.45L137.513 146.366C137.716 146.328 137.916 146.286 138.114 146.241V146.222C142.962 145.106 146.733 141.706 148.493 137.376C148.496 137.367 148.5 137.359 148.503 137.35C146.429 140.819 142.947 143.424 138.662 144.226L127.45 146.326C126.541 146.496 125.638 146.578 124.746 146.578C117.852 146.577 111.716 141.676 110.402 134.654L109.757 131.216L108.124 131.827L109.027 136.646C109.55 139.445 110.842 141.899 112.627 143.861V143.876C112.727 143.986 112.829 144.094 112.932 144.2C114.072 149.06 118.446 152.71 123.64 152.71Z" fill="#EFA88D"/>
<path fill-rule="evenodd" clip-rule="evenodd" d="M103.887 126.708C103.964 126.708 104.042 126.684 104.108 126.632L106.908 124.458C106.992 124.394 107.042 124.296 107.047 124.191C107.053 124.087 107.011 123.984 106.935 123.912L103.48 120.651C103.336 120.515 103.107 120.521 102.972 120.666C102.835 120.811 102.842 121.038 102.987 121.175L106.135 124.147L103.665 126.064C103.509 126.186 103.48 126.412 103.603 126.569C103.673 126.661 103.78 126.708 103.887 126.708Z" fill="#E98772"/>
<path fill-rule="evenodd" clip-rule="evenodd" d="M121.702 113.312C122.242 113.296 122.8 112.968 123.355 112.682C123.91 112.383 124.474 112.096 124.972 111.863C125.472 111.631 126.055 111.383 126.641 111.151C127.217 110.908 127.829 110.691 128.182 110.29C128.526 109.909 128.459 109.309 127.653 108.907C126.886 108.507 125.325 108.412 123.67 109.179C122.021 109.953 121.109 111.201 120.941 112.036C120.752 112.901 121.184 113.333 121.702 113.312Z" fill="#16171B"/>
<path fill-rule="evenodd" clip-rule="evenodd" d="M144.611 111.338C144.144 111.595 143.5 111.629 142.878 111.695C142.251 111.749 141.622 111.818 141.077 111.894C140.532 111.97 139.907 112.077 139.289 112.197C138.673 112.305 138.041 112.449 137.53 112.328C137.038 112.218 136.778 111.741 137.249 111.045C137.688 110.369 138.961 109.523 140.767 109.266C142.572 109.018 144.001 109.486 144.583 110.018C145.199 110.563 145.061 111.095 144.611 111.338Z" fill="#16171B"/>
<path fill-rule="evenodd" clip-rule="evenodd" d="M126.997 119.466L126.948 119.476C126.466 119.566 125.999 119.245 125.908 118.764L125.695 117.623C125.605 117.141 125.926 116.673 126.407 116.583L126.456 116.574C126.937 116.484 127.405 116.805 127.495 117.286L127.709 118.427C127.799 118.908 127.479 119.376 126.997 119.466Z" fill="#16171B"/>
<path fill-rule="evenodd" clip-rule="evenodd" d="M142.516 116.945L142.468 116.954C141.986 117.044 141.518 116.723 141.428 116.242L141.215 115.102C141.124 114.62 141.445 114.152 141.926 114.062L141.975 114.053C142.456 113.963 142.924 114.282 143.015 114.764L143.228 115.905C143.319 116.387 142.998 116.854 142.516 116.945Z" fill="#16171B"/>
<path fill-rule="evenodd" clip-rule="evenodd" d="M123.047 123.958C123.088 123.958 123.129 123.956 123.17 123.951L126.357 123.593C126.96 123.525 127.398 122.976 127.331 122.373L127.323 122.312C127.26 121.749 126.78 121.332 126.226 121.332C126.186 121.332 126.145 121.334 126.104 121.338L122.918 121.697C122.314 121.765 121.876 122.314 121.944 122.917L121.951 122.978C122.014 123.539 122.495 123.958 123.047 123.958Z" fill="#F2B292"/>
<path fill-rule="evenodd" clip-rule="evenodd" d="M144.06 120.648C144.102 120.648 144.143 120.646 144.184 120.641L147.37 120.282C147.973 120.214 148.411 119.666 148.342 119.063L148.337 119.002C148.272 118.44 147.792 118.021 147.239 118.021C147.199 118.021 147.158 118.023 147.116 118.029L143.93 118.386C143.327 118.455 142.889 119.004 142.957 119.607L142.964 119.668C143.027 120.23 143.508 120.648 144.06 120.648Z" fill="#F2B292"/>
<path fill-rule="evenodd" clip-rule="evenodd" d="M138.084 136.582C138.195 136.582 138.305 136.531 138.375 136.435C138.493 136.274 138.457 136.049 138.297 135.931C136.788 134.829 135.098 135.447 134.415 135.928C134.253 136.042 134.213 136.265 134.327 136.428C134.441 136.59 134.665 136.629 134.828 136.517C134.892 136.473 136.41 135.444 137.872 136.513C137.936 136.56 138.011 136.582 138.084 136.582Z" fill="#E98772"/>
<path fill-rule="evenodd" clip-rule="evenodd" d="M135.649 126.348L127.23 125.145L128.151 128.07C128.742 129.942 130.478 131.216 132.442 131.216C133.969 131.216 135.251 130.065 135.413 128.546L135.649 126.348Z" fill="#FFFFFE"/>
<path fill-rule="evenodd" clip-rule="evenodd" d="M133.473 123.363L133.564 123.351L136.174 122.672C137.282 122.384 138.174 121.615 138.625 120.564C139.075 119.512 139.015 118.335 138.46 117.335L134.484 110.178C134.386 110.003 134.168 109.942 133.995 110.039C133.821 110.135 133.758 110.354 133.854 110.528L137.83 117.684C138.277 118.489 138.325 119.435 137.963 120.28C137.601 121.126 136.883 121.744 135.993 121.975L133.382 122.655C133.189 122.705 133.074 122.901 133.125 123.094C133.166 123.256 133.312 123.363 133.473 123.363Z" fill="#E98772"/>
<mask id="mask0_1_876" style="mask-type:luminance" maskUnits="userSpaceOnUse" x="284" y="194" width="2" height="1">
<path fill-rule="evenodd" clip-rule="evenodd" d="M285.606 194.229C284.86 194.206 284.598 194.198 284.599 194.198C284.601 194.198 285.172 194.215 285.606 194.229Z" fill="white"/>
</mask>
<g mask="url(#mask0_1_876)">
<path fill-rule="evenodd" clip-rule="evenodd" d="M284.598 194.229H285.606V194.198H284.598V194.229Z" fill="#F2B292"/>
</g>
<path fill-rule="evenodd" clip-rule="evenodd" d="M286.081 194.242C285.915 194.238 285.775 194.233 285.642 194.23C285.889 194.237 286.081 194.242 286.081 194.242Z" fill="#F2B292"/>
<path fill-rule="evenodd" clip-rule="evenodd" d="M304.271 165.003L295.327 164.967L295.351 164.885C299.445 164.889 300.932 164.975 304.271 165.003Z" fill="#BBBAD2"/>
<path fill-rule="evenodd" clip-rule="evenodd" d="M301.554 143.304L305.752 128.701C305.424 129.842 301.694 142.819 301.556 143.3C301.555 143.302 301.555 143.303 301.554 143.304Z" fill="#CAC4D8"/>
<path fill-rule="evenodd" clip-rule="evenodd" d="M396.558 221.433L396.526 221.418L400.32 220.954L396.558 221.433Z" fill="#A4816D"/>
<path fill-rule="evenodd" clip-rule="evenodd" d="M396.53 221.436C396.529 221.43 396.527 221.425 396.526 221.418L396.558 221.433L396.53 221.436Z" fill="#A37A69"/>
<path fill-rule="evenodd" clip-rule="evenodd" d="M430.321 238.217C430.316 238.188 430.297 238.097 430.264 237.931C430.291 238.068 430.313 238.178 430.321 238.217Z" fill="#F2B292"/>
<path fill-rule="evenodd" clip-rule="evenodd" d="M430.04 236.794C430.038 236.788 430.038 236.782 430.036 236.776C430.036 236.778 430.038 236.784 430.04 236.794Z" fill="#FDEAE6"/>
<path fill-rule="evenodd" clip-rule="evenodd" d="M430.188 237.545C430.148 237.345 430.101 237.107 430.04 236.794C430.056 236.877 430.123 237.216 430.188 237.545Z" fill="#F2B292"/>
<path fill-rule="evenodd" clip-rule="evenodd" d="M430.264 237.931C430.244 237.826 430.22 237.707 430.195 237.583C430.223 237.723 430.246 237.841 430.264 237.931Z" fill="#F2B292"/>
<path fill-rule="evenodd" clip-rule="evenodd" d="M351.709 148.241C346.857 147.126 343.09 143.709 341.329 139.376C343.09 143.706 346.86 147.106 351.709 148.222V148.241ZM377.195 145.876V145.861C378.981 143.899 380.273 141.445 380.796 138.646L381.698 133.827L380.796 138.646C380.272 141.448 378.985 143.913 377.195 145.876Z" fill="#D0B8C9"/>
<path fill-rule="evenodd" clip-rule="evenodd" d="M274.545 177.129L303.388 123.649L306.789 115.624C306.789 115.624 318.772 87.8287 328.484 95.9949C328.484 95.9949 328.469 96.0719 328.443 96.2015C328.773 95.8012 329.166 95.4823 329.597 95.2828C330.277 94.9696 331.029 94.93 331.691 95.2403C333.017 95.861 333.499 97.6552 332.762 99.227L324.47 116.932C324.916 116.274 326.385 115.286 326.816 114.927C327.723 114.168 328.691 113.479 329.774 112.993C331.623 112.166 333.845 112.425 335.054 114.217C335.262 114.525 335.431 114.896 335.351 115.258C335.279 115.584 335.025 115.832 334.78 116.058C332.437 118.229 329.851 120.124 327.556 122.344C327.556 122.344 327.043 127.31 322.746 130.307C320.259 132.042 319.045 134.01 318.576 134.927L318.62 134.961L308.173 171.308L323.431 171.512V200.584H289.687C286.822 200.584 284.138 199.814 281.823 198.476C281.712 198.425 281.6 198.378 281.489 198.325C273.61 194.483 270.466 184.888 274.545 177.129Z" fill="#F4BE99"/>
<path fill-rule="evenodd" clip-rule="evenodd" d="M298.926 200.584L319.294 171.457H319.278C317.741 171.457 316.591 171.436 315.597 171.407L308.173 171.308L308.196 171.226C308.169 171.226 308.142 171.225 308.114 171.225C306.767 179.488 298.926 200.584 298.926 200.584ZM298.721 200.577C298.692 200.576 298.664 200.576 298.636 200.574C298.666 200.576 298.695 200.576 298.721 200.577ZM298.459 200.569C298.432 200.568 298.405 200.568 298.379 200.567C298.406 200.568 298.433 200.568 298.459 200.569ZM298.342 200.566C298.307 200.565 298.273 200.563 298.239 200.563C298.274 200.563 298.309 200.565 298.342 200.566ZM298.229 200.562C297.65 200.545 297.439 200.538 297.439 200.538C297.439 200.538 297.842 200.55 298.229 200.562Z" fill="#F2B292"/>
<path fill-rule="evenodd" clip-rule="evenodd" d="M316.415 118.741C316.525 118.741 316.635 118.691 316.705 118.595C319.945 114.202 324.139 116.465 324.315 116.564C324.488 116.66 324.707 116.599 324.805 116.426C324.902 116.252 324.84 116.033 324.667 115.936C324.618 115.909 319.748 113.255 316.126 118.167C316.008 118.327 316.042 118.553 316.202 118.671C316.266 118.718 316.341 118.741 316.415 118.741Z" fill="#E98772"/>
<path fill-rule="evenodd" clip-rule="evenodd" d="M328.333 95.8423C327.459 96.7149 326.665 97.6415 325.908 98.6071C325.156 99.574 324.452 100.581 323.822 101.638C323.201 102.7 322.648 103.806 322.208 104.967C321.792 106.135 321.497 107.356 321.398 108.614C321.382 108.812 321.531 108.986 321.729 109.001C321.927 109.017 322.101 108.868 322.116 108.67L322.117 108.665L322.118 108.65C322.187 107.477 322.441 106.315 322.818 105.184C323.218 104.061 323.733 102.975 324.319 101.926C324.913 100.882 325.586 99.8786 326.306 98.9116C327.03 97.949 327.804 97.0108 328.634 96.1483L328.639 96.1432C328.721 96.0575 328.718 95.9215 328.634 95.8394C328.549 95.758 328.416 95.7602 328.333 95.8423Z" fill="#E98772"/>
<path fill-rule="evenodd" clip-rule="evenodd" d="M325.899 94.457C324.725 95.0646 323.864 95.9682 323.059 96.9186C322.269 97.8784 321.58 98.9166 320.99 100.003C320.379 101.08 319.875 102.209 319.394 103.347L318.74 105.078L318.158 106.833C318.096 107.022 318.198 107.225 318.386 107.288C318.575 107.351 318.779 107.248 318.842 107.06L318.843 107.055L318.848 107.039L319.388 105.3L320.001 103.587C320.451 102.463 320.925 101.345 321.502 100.282C322.06 99.209 322.712 98.1866 323.459 97.2441C324.202 96.3182 325.074 95.4095 326.073 94.8695L326.107 94.8508C326.215 94.7925 326.255 94.6571 326.197 94.5491C326.139 94.4426 326.006 94.4015 325.899 94.457Z" fill="#E98772"/>
<path fill-rule="evenodd" clip-rule="evenodd" d="M321.943 95.0668C321.135 95.7191 320.421 96.4413 319.745 97.2102C319.071 97.9778 318.45 98.7935 317.895 99.6539C317.337 100.511 316.832 101.406 316.414 102.344C315.972 103.272 315.648 104.25 315.352 105.236C315.294 105.427 315.402 105.628 315.593 105.685C315.783 105.742 315.984 105.634 316.041 105.443L316.043 105.437L316.048 105.418C316.31 104.465 316.597 103.512 317.003 102.605C317.386 101.688 317.854 100.807 318.376 99.9592C318.895 99.1082 319.481 98.2974 320.121 97.5321C320.758 96.7674 321.454 96.033 322.202 95.398L322.211 95.3901C322.299 95.3152 322.311 95.1827 322.236 95.0942C322.161 95.0078 322.032 94.9955 321.943 95.0668Z" fill="#E98772"/>
<path fill-rule="evenodd" clip-rule="evenodd" d="M315.666 145.24C315.666 145.24 316.94 138.908 318.559 135.177L318.621 134.961L318.576 134.927C318.721 134.643 318.938 134.258 319.243 133.809C319.464 133.438 319.688 133.132 319.914 132.911C319.916 132.909 319.917 132.908 319.919 132.906L308.773 131.53L315.666 145.24Z" fill="#F2B292"/>
<path fill-rule="evenodd" clip-rule="evenodd" d="M364.711 171.512L364.709 171.524C364.881 171.521 365.051 171.512 365.225 171.512H400.444C408.091 171.512 414.613 176.313 417.17 183.064L417.173 183.063L417.227 183.209L432.231 224.112L418.326 225.812V271.157H342.645L336.986 200.584H323.821V171.37L364.711 171.512Z" fill="#FFFFFE"/>
<path fill-rule="evenodd" clip-rule="evenodd" d="M323.431 200.584H336.595H323.821V171.371L323.431 171.37V200.584Z" fill="#AABBD6"/>
<path fill-rule="evenodd" clip-rule="evenodd" d="M323.821 200.584H336.595L336.533 199.812C336.533 184.584 348.563 172.17 363.637 171.542L363.638 171.537L323.821 171.371V200.584Z" fill="#F5F5F3"/>
<path fill-rule="evenodd" clip-rule="evenodd" d="M337.474 202.502L351.697 199.681C353.381 199.346 355.033 200.451 355.368 202.135L361.891 235.015C362.226 236.7 361.121 238.352 359.437 238.687L353.614 239.842L345.212 241.508C343.528 241.842 341.876 240.737 341.542 239.053L335.018 206.173C334.684 204.489 335.789 202.837 337.474 202.502Z" fill="#16171B"/>
<path fill-rule="evenodd" clip-rule="evenodd" d="M335.983 221.614C336.16 221.241 336.441 220.945 336.779 220.739C336.839 220.65 336.889 220.561 336.954 220.471C336.954 220.471 337.082 220.486 337.294 220.514C337.541 220.441 337.803 220.407 338.068 220.427C340.925 220.651 347.8 221.187 352.008 221.515C354.281 221.693 356.555 221.22 358.57 220.152L358.907 219.973L358.209 216.456C358.961 217.378 359.725 218.289 360.536 219.15C360.947 219.173 363.294 219.381 365.489 221.018C366.303 221.592 367.105 222.353 367.787 223.373C368.644 224.654 369.569 225.538 370.364 226.141C370.829 226.477 371.243 226.715 371.556 226.872L371.583 226.833L403.287 234.682L403.433 234.718L401.824 227.58L430.995 224.045L437.409 251.976C439.355 260.45 434.063 268.897 425.589 270.843C422.55 271.541 419.521 271.149 416.889 269.944C416.374 269.761 415.864 269.55 415.36 269.309L361.697 242.894L354.422 240.168C354.422 240.168 354.128 240.055 353.614 239.842L353.72 239.821C350.401 238.468 331.791 230.425 335.983 221.614Z" fill="#F4BE99"/>
<path fill-rule="evenodd" clip-rule="evenodd" d="M435.363 243.065L435.356 243.033L402.07 227.748L402.026 227.753C403.015 232.064 402.827 231.811 403.483 234.827L426.326 240.482C426.773 240.603 427.207 240.746 427.632 240.901C431.601 241.954 434.624 242.845 435.363 243.065Z" fill="#F2B292"/>
<path fill-rule="evenodd" clip-rule="evenodd" d="M399.319 228.085L399.364 228.082L401.868 227.773L401.824 227.58L406.018 227.072C406.04 227.018 406.049 226.957 406.041 226.895C406.018 226.714 405.861 226.579 405.686 226.579C405.671 226.579 405.655 226.58 405.64 226.582L399.622 227.324L396.271 205.945C396.243 205.765 396.089 205.641 395.912 205.641C395.895 205.641 395.877 205.642 395.859 205.644C395.663 205.675 395.529 205.86 395.56 206.056L398.964 227.78C398.992 227.957 399.145 228.085 399.319 228.085Z" fill="#A8A8A8"/>
<path fill-rule="evenodd" clip-rule="evenodd" d="M401.868 227.773L402.026 227.753C402.024 227.744 402.022 227.734 402.02 227.725L402.07 227.748L405.728 227.296C405.863 227.28 405.972 227.19 406.018 227.072L401.824 227.58L401.868 227.773Z" fill="#A4816D"/>
<path fill-rule="evenodd" clip-rule="evenodd" d="M391.78 231.833L384.964 230.146L371.065 226.753C370.602 229.236 374.297 231.51 376.971 231.51C377.159 231.51 377.342 231.499 377.517 231.476L391.78 231.833Z" fill="#F3B795"/>
<path fill-rule="evenodd" clip-rule="evenodd" d="M346.556 162.315L351.443 129.059C351.978 125.415 353.037 121.98 354.521 118.807L351.869 118.381C351.869 118.381 353.731 91.3883 384.005 97.833C386.987 97.5249 390.055 97.5767 393.156 98.0325C407.864 100.193 418.035 113.867 415.874 128.575L413.025 147.961C410.865 162.668 397.19 172.839 382.483 170.678L349.133 165.778C347.465 165.532 346.312 163.982 346.556 162.315Z" fill="#16171B"/>
<path fill-rule="evenodd" clip-rule="evenodd" d="M366.64 117.323C366.817 117.323 366.971 117.192 366.997 117.012C367.023 116.814 366.886 116.633 366.688 116.606L356.953 115.276C356.876 115.266 356.804 115.223 356.758 115.158C356.732 115.123 356.692 115.049 356.708 114.953C358.282 106.178 366.367 102.129 366.448 102.09C366.626 102.003 366.701 101.787 366.614 101.608C366.526 101.429 366.309 101.355 366.132 101.443C366.048 101.484 357.64 105.683 356 114.826C355.952 115.092 356.014 115.361 356.176 115.582C356.337 115.804 356.585 115.953 356.856 115.99L366.591 117.319L366.64 117.323Z" fill="#FDF1E0"/>
<path fill-rule="evenodd" clip-rule="evenodd" d="M357.262 119.247L383.911 123.529L390.379 113.963C389.109 124.636 396.978 131.53 396.978 131.53C396.978 131.53 397.059 131.42 397.198 131.218L397.419 131.259C401.59 132.04 404.363 136.091 403.583 140.26C402.802 144.431 398.751 147.204 394.581 146.424L394.071 146.329C393.161 150.328 391.107 153.791 388.305 156.422V173.501C388.305 179.555 383.351 184.509 377.298 184.509C371.243 184.509 366.29 179.555 366.29 173.501V160.014C361.905 157.996 358.473 154.471 356.513 150.209L356.5 150.19C354.119 146.2 353.122 141.361 354.045 136.434L357.262 119.247Z" fill="#F4BE99"/>
<path fill-rule="evenodd" clip-rule="evenodd" d="M377.298 166.465C383.009 166.465 387.736 162.054 388.253 156.471C388.27 156.455 388.288 156.439 388.305 156.423V156.422C391.079 153.817 393.121 150.394 394.045 146.445C393.945 146.303 393.104 146.085 392.612 146.085C392.423 146.085 392.286 146.117 392.26 146.197C389.615 154.345 381.978 159.837 373.491 159.836C372.286 159.836 371.062 159.725 369.833 159.495C364.042 158.41 359.321 154.902 356.516 150.215C357.222 151.75 358.12 153.19 359.185 154.498C361.351 157.155 364.207 159.268 367.547 160.534C369.391 164.049 373.073 166.465 377.298 166.465Z" fill="#EFA88D"/>
<path fill-rule="evenodd" clip-rule="evenodd" d="M398.226 141.364C398.333 141.364 398.439 141.316 398.51 141.225C398.632 141.068 398.604 140.842 398.447 140.719L396.052 138.862L399.109 135.978C399.253 135.842 399.26 135.614 399.123 135.469C398.986 135.325 398.759 135.318 398.614 135.454L395.253 138.627C395.177 138.699 395.136 138.801 395.14 138.905C395.146 139.011 395.196 139.108 395.279 139.173L398.005 141.288C398.071 141.339 398.149 141.364 398.226 141.364Z" fill="#E98772"/>
<path fill-rule="evenodd" clip-rule="evenodd" d="M379.052 128.238C378.73 128.229 378.4 128.034 378.069 127.865C377.741 127.687 377.406 127.516 377.11 127.378C376.814 127.24 376.467 127.093 376.12 126.956C375.778 126.812 375.414 126.683 375.205 126.444C375 126.218 375.04 125.862 375.519 125.623C375.974 125.386 376.901 125.33 377.884 125.785C378.862 126.244 379.404 126.985 379.504 127.481C379.615 127.995 379.36 128.25 379.052 128.238Z" fill="#16171B"/>
<path fill-rule="evenodd" clip-rule="evenodd" d="M359.952 124.917C360.263 124.996 360.635 124.901 360.999 124.829C361.364 124.749 361.733 124.678 362.056 124.627C362.379 124.576 362.752 124.531 363.124 124.495C363.493 124.451 363.878 124.427 364.145 124.256C364.404 124.095 364.464 123.742 364.071 123.38C363.699 123.027 362.823 122.716 361.754 122.882C360.685 123.052 359.961 123.615 359.727 124.063C359.478 124.526 359.653 124.843 359.952 124.917Z" fill="#16171B"/>
<path fill-rule="evenodd" clip-rule="evenodd" d="M370.742 143.135C373.696 143.135 375.667 140.817 375.691 140.787C375.818 140.634 375.797 140.407 375.644 140.28C375.492 140.154 375.265 140.173 375.138 140.326C375.023 140.463 372.291 143.654 368.475 141.892C368.294 141.808 368.08 141.887 367.997 142.068C367.913 142.248 367.992 142.462 368.173 142.546C369.087 142.968 369.951 143.135 370.742 143.135Z" fill="#E98772"/>
<path fill-rule="evenodd" clip-rule="evenodd" d="M368.593 138.109C368.762 138.109 368.913 137.99 368.946 137.819C368.985 137.624 368.857 137.434 368.662 137.396L366.13 136.898C364.557 136.588 363.529 135.056 363.839 133.483C363.95 132.914 364.504 132.545 365.072 132.655C366.403 132.915 367.697 132.047 367.959 130.718L368.571 127.612C368.609 127.416 368.482 127.227 368.287 127.189C368.092 127.151 367.902 127.277 367.863 127.473L367.252 130.578C367.068 131.519 366.15 132.133 365.211 131.948C364.745 131.858 364.275 131.952 363.883 132.215C363.489 132.479 363.223 132.88 363.132 133.343C362.746 135.306 364.028 137.218 365.991 137.604L368.523 138.103L368.593 138.109Z" fill="#E98772"/>
<path fill-rule="evenodd" clip-rule="evenodd" d="M375.765 134.313C376.247 134.403 376.715 134.083 376.805 133.601L377.004 132.539C377.094 132.058 376.774 131.59 376.293 131.5C375.811 131.41 375.343 131.729 375.253 132.211L375.053 133.274C374.963 133.755 375.284 134.223 375.765 134.313Z" fill="#16171B"/>
<path fill-rule="evenodd" clip-rule="evenodd" d="M360.667 131.86C361.149 131.95 361.617 131.63 361.707 131.148L361.905 130.085C361.996 129.604 361.676 129.136 361.194 129.046C360.712 128.956 360.244 129.276 360.154 129.758L359.956 130.82C359.866 131.302 360.186 131.77 360.667 131.86Z" fill="#16171B"/>
<path fill-rule="evenodd" clip-rule="evenodd" d="M379.558 138.675C380.111 138.675 380.592 138.257 380.654 137.695C380.722 137.092 380.284 136.543 379.682 136.475L376.641 136.133C376.6 136.129 376.558 136.126 376.518 136.126C375.965 136.126 375.485 136.545 375.421 137.107C375.354 137.71 375.791 138.258 376.395 138.327L379.435 138.668C379.476 138.673 379.517 138.675 379.558 138.675Z" fill="#F2B292"/>
<path fill-rule="evenodd" clip-rule="evenodd" d="M359.115 135.455C359.668 135.455 360.149 135.036 360.212 134.475C360.28 133.872 359.842 133.323 359.239 133.255L356.198 132.914C356.157 132.909 356.116 132.906 356.075 132.906C355.523 132.906 355.042 133.325 354.979 133.886C354.911 134.49 355.349 135.038 355.952 135.106L358.992 135.448C359.033 135.452 359.074 135.455 359.115 135.455Z" fill="#F2B292"/>
<path fill-rule="evenodd" clip-rule="evenodd" d="M364.956 150.97C365.03 150.97 365.104 150.947 365.168 150.901C366.585 149.865 368.056 150.862 368.118 150.905C368.281 151.019 368.504 150.978 368.618 150.816C368.732 150.654 368.693 150.43 368.531 150.315C367.864 149.847 366.215 149.243 364.743 150.32C364.582 150.437 364.548 150.662 364.665 150.823C364.735 150.919 364.845 150.97 364.956 150.97Z" fill="#E98772"/>
<path fill-rule="evenodd" clip-rule="evenodd" d="M373.163 198.94C373.284 198.94 373.405 198.942 373.525 198.947L376.88 194.814C375.694 194.482 374.444 194.305 373.152 194.305C365.526 194.305 359.344 200.487 359.344 208.113C359.344 213.75 362.721 218.598 367.563 220.744L369.663 216.618C366.327 215.242 363.979 211.957 363.979 208.124C363.979 203.052 368.091 198.94 373.163 198.94ZM378.293 195.294L376.508 199.568C379.926 200.905 382.347 204.232 382.347 208.124C382.347 213.197 378.235 217.308 373.163 217.308C372.743 217.308 372.33 217.28 371.926 217.226L368.696 221.187C370.094 221.664 371.593 221.922 373.152 221.922C380.779 221.922 386.961 215.74 386.961 208.113C386.961 202.304 383.374 197.333 378.293 195.294Z" fill="#FF6D40"/>
<path d="M367.233 207.467L378.914 192.874L373.369 206.024L379.521 207.467L366.969 222.677L374.07 208.907L367.233 207.467Z" fill="#FF6D40"/>
<path fill-rule="evenodd" clip-rule="evenodd" d="M193.027 171.407C195.366 171.34 196.837 171.227 200.428 171.226L200.451 171.308L193.027 171.407Z" fill="#BBBAD2"/>
<path fill-rule="evenodd" clip-rule="evenodd" d="M190.065 135.177C189.844 134.664 189.615 134.201 189.381 133.809C189.686 134.258 189.903 134.643 190.048 134.927L190.003 134.961L190.065 135.177Z" fill="#CAC4D8"/>
<path fill-rule="evenodd" clip-rule="evenodd" d="M72.8068 244.535C72.8133 244.498 72.8277 244.426 72.8507 244.313C72.8306 244.414 72.8154 244.491 72.8068 244.535Z" fill="#CAC5D8"/>
<path fill-rule="evenodd" clip-rule="evenodd" d="M73.0869 243.117L73.2683 243.033L73.2611 243.065C73.1467 243.099 73.0869 243.117 73.0869 243.117Z" fill="#CAC5D8"/>
<path fill-rule="evenodd" clip-rule="evenodd" d="M72.8635 244.246C72.888 244.123 72.9161 243.979 72.9449 243.834C72.9117 244.002 72.8844 244.141 72.8635 244.246Z" fill="#CAC5D8"/>
<path fill-rule="evenodd" clip-rule="evenodd" d="M72.9448 243.834C73.0161 243.473 73.0867 243.117 73.0867 243.117C73.0284 243.412 72.9837 243.638 72.9448 243.834Z" fill="#CAC5D8"/>
<path fill-rule="evenodd" clip-rule="evenodd" d="M106.598 227.753L106.554 227.748L106.604 227.725C106.602 227.734 106.6 227.744 106.598 227.753Z" fill="#A37A69"/>
<path fill-rule="evenodd" clip-rule="evenodd" d="M116.739 231.836L123.66 230.146L116.844 231.833L116.739 231.836Z" fill="#FFF7F5"/>
<path fill-rule="evenodd" clip-rule="evenodd" d="M120.319 156.423C117.55 153.824 115.497 150.417 114.57 146.478C114.567 146.468 114.57 146.457 114.579 146.445C115.503 150.395 117.545 153.817 120.319 156.422V156.423ZM149.439 154.498C150.504 153.19 151.402 151.75 152.108 150.215C152.113 150.207 152.118 150.199 152.123 150.19C151.414 151.735 150.511 153.183 149.439 154.498Z" fill="#563939"/>
<path fill-rule="evenodd" clip-rule="evenodd" d="M211.936 81.9368C211.936 103.388 229.325 120.777 250.776 120.777C272.227 120.777 289.617 103.388 289.617 81.9368C289.617 60.4863 272.227 43.097 250.776 43.097C229.325 43.097 211.936 60.4863 211.936 81.9368Z" fill="#16171B"/>
<path fill-rule="evenodd" clip-rule="evenodd" d="M216.033 77.8405C216.033 99.2917 233.422 116.681 254.872 116.681C276.324 116.681 293.713 99.2917 293.713 77.8405C293.713 56.3894 276.324 39 254.872 39C233.422 39 216.033 56.3894 216.033 77.8405Z" fill="#F2AE50"/>
<path fill-rule="evenodd" clip-rule="evenodd" d="M254.872 48.6618C271.003 48.6618 284.127 61.7853 284.127 77.9162C284.127 94.0472 271.003 107.171 254.872 107.171C238.742 107.171 225.619 94.0472 225.619 77.9162C225.619 61.7853 238.742 48.6618 254.872 48.6618ZM254.872 109.198C272.121 109.198 286.154 95.165 286.154 77.9162C286.154 60.6674 272.121 46.6343 254.872 46.6343C237.624 46.6343 223.591 60.6674 223.591 77.9162C223.591 95.165 237.624 109.198 254.872 109.198Z" fill="#FDF1E0"/>
<path fill-rule="evenodd" clip-rule="evenodd" d="M226.672 75.4122C226.672 70.0785 230.996 65.7545 236.33 65.7545C230.996 65.7545 226.672 61.4298 226.672 56.096C226.672 61.4298 222.348 65.7545 217.014 65.7545C222.348 65.7545 226.672 70.0785 226.672 75.4122Z" fill="#FDF1E0"/>
<path fill-rule="evenodd" clip-rule="evenodd" d="M275.998 59.8645C275.998 69.5703 283.867 77.4384 293.572 77.4384C303.278 77.4384 311.147 69.5703 311.147 59.8645C311.147 50.1581 303.278 42.29 293.572 42.29C283.867 42.29 275.998 50.1581 275.998 59.8645Z" fill="#16171B"/>
<path fill-rule="evenodd" clip-rule="evenodd" d="M277.852 58.0107C277.852 67.7171 285.72 75.5852 295.426 75.5852C305.132 75.5852 313 67.7171 313 58.0107C313 48.305 305.132 40.4362 295.426 40.4362C285.72 40.4362 277.852 48.305 277.852 58.0107Z" fill="#F2AE50"/>
<path fill-rule="evenodd" clip-rule="evenodd" d="M295.426 44.8082C302.725 44.8082 308.663 50.7461 308.663 58.0452C308.663 65.3436 302.725 71.2822 295.426 71.2822C288.127 71.2822 282.189 65.3436 282.189 58.0452C282.189 50.7461 288.127 44.8082 295.426 44.8082ZM295.426 72.1993C303.231 72.1993 309.58 65.8498 309.58 58.0452C309.58 50.2406 303.231 43.8911 295.426 43.8911C287.621 43.8911 281.272 50.2406 281.272 58.0452C281.272 65.8498 287.621 72.1993 295.426 72.1993Z" fill="#FDF1E0"/>
<path fill-rule="evenodd" clip-rule="evenodd" d="M296.847 61.8846C297.811 61.7359 298.293 61.3014 298.293 60.5809V60.5404C298.293 60.1876 298.192 59.899 297.988 59.6746C297.784 59.4502 297.404 59.2367 296.847 59.0332V61.8846ZM294.932 52.7385C294.443 52.8067 294.087 52.9527 293.863 53.1764C293.639 53.4008 293.527 53.6752 293.527 54.0016V54.0422C293.527 54.3544 293.622 54.6227 293.812 54.8471C294.002 55.0708 294.375 55.285 294.932 55.4885V52.7385ZM294.83 64.3906C293.947 64.2818 293.096 64.0615 292.274 63.7283C291.452 63.3958 290.702 62.9714 290.023 62.4557L291.612 60.1328C292.169 60.5539 292.709 60.904 293.231 61.1817C293.754 61.4602 294.321 61.6609 294.932 61.7832V58.5439C294.199 58.3405 293.557 58.1161 293.007 57.8715C292.457 57.6275 292.002 57.3355 291.643 56.9956C291.283 56.6563 291.011 56.2596 290.828 55.8041C290.645 55.3492 290.553 54.8234 290.553 54.2253V54.1848C290.553 53.6144 290.655 53.0987 290.858 52.6364C291.062 52.1748 291.35 51.774 291.724 51.4348C292.097 51.0955 292.549 50.8204 293.078 50.6096C293.608 50.3994 294.192 50.2602 294.83 50.1919V49.0105H296.949V50.2331C297.682 50.3419 298.358 50.5217 298.976 50.7724C299.593 51.0245 300.181 51.3469 300.738 51.7402L299.373 54.1233C298.966 53.8522 298.551 53.611 298.13 53.4008C297.709 53.1899 297.281 53.0304 296.847 52.9216V55.9974C298.395 56.4184 299.519 56.9685 300.219 57.6478C300.918 58.327 301.267 59.2367 301.267 60.3775V60.418C301.267 60.9884 301.162 61.5048 300.952 61.9664C300.741 62.4287 300.449 62.8288 300.076 63.168C299.702 63.508 299.251 63.7864 298.721 64.0034C298.192 64.221 297.601 64.3636 296.949 64.4312V66.4479H294.83V64.3906Z" fill="#16171B"/>
<path fill-rule="evenodd" clip-rule="evenodd" d="M257.794 87.4338C259.715 87.1405 260.675 86.2832 260.675 84.8619V84.7819C260.675 84.086 260.473 83.5167 260.066 83.074C259.661 82.6314 258.903 82.21 257.794 81.8087V87.4338ZM253.98 69.3905C253.006 69.5252 252.295 69.8132 251.85 70.2545C251.403 70.6972 251.181 71.2385 251.181 71.8824V71.9624C251.181 72.5784 251.369 73.1077 251.749 73.5504C252.127 73.9917 252.87 74.4144 253.98 74.8157V69.3905ZM253.776 92.3777C252.018 92.163 250.322 91.7283 248.685 91.071C247.047 90.4151 245.553 89.5778 244.2 88.5605L247.365 83.978C248.475 84.8086 249.55 85.4993 250.591 86.0472C251.633 86.5965 252.763 86.9925 253.98 87.2339V80.8434C252.519 80.4421 251.241 79.9995 250.145 79.5168C249.049 79.0355 248.142 78.4595 247.427 77.7889C246.709 77.1196 246.168 76.3369 245.803 75.4383C245.439 74.541 245.255 73.5037 245.255 72.3238V72.2438C245.255 71.1185 245.459 70.1012 245.864 69.1892C246.269 68.2786 246.844 67.488 247.589 66.8186C248.332 66.1493 249.232 65.6067 250.287 65.1907C251.342 64.7761 252.505 64.5014 253.776 64.3667V62.0362H257.997V64.4481C259.458 64.6627 260.804 65.0174 262.035 65.512C263.265 66.0093 264.435 66.6453 265.546 67.4213L262.826 72.1224C262.014 71.5878 261.189 71.1118 260.35 70.6972C259.512 70.2812 258.659 69.9665 257.794 69.7519V75.8196C260.878 76.6503 263.117 77.7356 264.51 79.0755C265.904 80.4155 266.6 82.21 266.6 84.4606V84.5406C266.6 85.6659 266.39 86.6845 265.971 87.5952C265.551 88.5071 264.97 89.2964 264.226 89.9657C263.482 90.6364 262.583 91.1857 261.527 91.6137C260.473 92.043 259.296 92.3243 257.997 92.4577V96.4362H253.776V92.3777Z" fill="#16171B"/>
<path fill-rule="evenodd" clip-rule="evenodd" d="M277.8 92.9471C277.8 99.8247 283.375 105.4 290.253 105.4C297.13 105.4 302.706 99.8247 302.706 92.9471C302.706 86.0697 297.13 80.4944 290.253 80.4944C283.375 80.4944 277.8 86.0697 277.8 92.9471Z" fill="#16171B"/>
<path fill-rule="evenodd" clip-rule="evenodd" d="M279.294 91.4528C279.294 98.3304 284.87 103.906 291.747 103.906C298.625 103.906 304.2 98.3304 304.2 91.4528C304.2 84.5753 298.625 79 291.747 79C284.87 79 279.294 84.5753 279.294 91.4528Z" fill="#F2AE50"/>
<path fill-rule="evenodd" clip-rule="evenodd" d="M291.747 82.1363C296.884 82.1363 301.064 86.3157 301.064 91.4528C301.064 96.59 296.884 100.769 291.747 100.769C286.61 100.769 282.431 96.59 282.431 91.4528C282.431 86.3157 286.61 82.1363 291.747 82.1363ZM291.747 101.415C297.24 101.415 301.709 96.946 301.709 91.4528C301.709 85.9597 297.24 81.4906 291.747 81.4906C286.254 81.4906 281.785 85.9597 281.785 91.4528C281.785 96.946 286.254 101.415 291.747 101.415Z" fill="#FDF1E0"/>
<path fill-rule="evenodd" clip-rule="evenodd" d="M282.781 90.4566C282.781 88.8061 284.119 87.468 285.77 87.468C284.119 87.468 282.781 86.1298 282.781 84.4792C282.781 86.1298 281.443 87.468 279.792 87.468C281.443 87.468 282.781 88.8061 282.781 90.4566Z" fill="#FDF1E0"/>
<path fill-rule="evenodd" clip-rule="evenodd" d="M292.52 94.3455C293.16 94.2393 293.48 93.9289 293.48 93.4144V93.3854C293.48 93.1335 293.413 92.9274 293.277 92.7672C293.142 92.6069 292.89 92.4544 292.52 92.3091V94.3455ZM291.56 88.7455C291.226 88.7834 290.982 88.8645 290.829 88.9887C290.676 89.1133 290.6 89.2657 290.6 89.447V89.4695C290.6 89.6429 290.665 89.7919 290.795 89.9165C290.925 90.0408 291.179 90.1598 291.56 90.2727V88.7455ZM291.278 96.0786C290.713 96.0087 290.168 95.8672 289.641 95.6532C289.115 95.4397 288.635 95.167 288.2 94.8358L289.217 93.3439C289.574 93.6143 289.92 93.8392 290.254 94.0176C290.589 94.1964 290.952 94.3253 291.343 94.4039V92.3233C290.874 92.1926 290.463 92.0485 290.111 91.8914C289.759 91.7347 289.467 91.5472 289.237 91.3288C289.007 91.1109 288.833 90.8561 288.715 90.5635C288.598 90.2714 288.539 89.9336 288.539 89.5495V89.5234C288.539 89.157 288.605 88.8258 288.735 88.5289C288.865 88.2324 289.05 87.975 289.289 87.7571C289.528 87.5392 289.818 87.3625 290.156 87.2271C290.496 87.0921 290.87 87.0026 291.278 86.9588V86.2H292.635V86.9853C293.104 87.0552 293.537 87.1706 293.933 87.3317C294.328 87.4936 294.704 87.7007 295.061 87.9533L294.187 89.4839C293.926 89.3098 293.661 89.1549 293.391 89.0199C293.122 88.8844 292.848 88.782 292.569 88.7121V90.6877C293.561 90.9581 294.28 91.3114 294.728 91.7477C295.176 92.184 295.4 92.7683 295.4 93.501V93.527C295.4 93.8934 295.332 94.2251 295.198 94.5216C295.063 94.8185 294.876 95.0755 294.637 95.2934C294.398 95.5117 294.109 95.6906 293.769 95.8299C293.431 95.9697 293.052 96.0613 292.635 96.1047V97.4H291.278V96.0786Z" fill="#16171B"/>
<path fill-rule="evenodd" clip-rule="evenodd" d="M223.751 76.5713C223.751 83.8506 217.85 89.7517 210.571 89.7517C203.291 89.7517 197.39 83.8506 197.39 76.5713C197.39 69.2915 203.291 63.3904 210.571 63.3904C217.85 63.3904 223.751 69.2915 223.751 76.5713Z" fill="#16171B"/>
<path fill-rule="evenodd" clip-rule="evenodd" d="M222.361 75.1809C222.361 82.4607 216.46 88.3618 209.18 88.3618C201.901 88.3618 196 82.4607 196 75.1809C196 67.9016 201.901 62 209.18 62C216.46 62 222.361 67.9016 222.361 75.1809Z" fill="#F2AE50"/>
<path fill-rule="evenodd" clip-rule="evenodd" d="M209.18 65.279C203.706 65.279 199.253 69.7324 199.253 75.2067C199.253 80.6805 203.706 85.1345 209.18 85.1345C214.655 85.1345 219.108 80.6805 219.108 75.2067C219.108 69.7324 214.655 65.279 209.18 65.279ZM209.18 85.8223C203.327 85.8223 198.565 81.0602 198.565 75.2067C198.565 69.3533 203.327 64.5912 209.18 64.5912C215.034 64.5912 219.796 69.3533 219.796 75.2067C219.796 81.0602 215.034 85.8223 209.18 85.8223Z" fill="#FDF1E0"/>
<path fill-rule="evenodd" clip-rule="evenodd" d="M209.917 78.0863C210.641 77.9748 211.002 77.6489 211.002 77.1086V77.0782C211.002 76.8136 210.926 76.5971 210.773 76.4288C210.62 76.2606 210.335 76.1004 209.917 75.9478V78.0863ZM208.481 71.2267C208.115 71.2779 207.847 71.3874 207.68 71.5552C207.511 71.7235 207.428 71.9293 207.428 72.1741V72.2045C207.428 72.4387 207.499 72.6399 207.642 72.8082C207.784 72.976 208.064 73.1367 208.481 73.2892V71.2267ZM208.405 79.9659C207.743 79.8842 207.104 79.719 206.488 79.4691C205.871 79.2197 205.309 78.9014 204.799 78.5147L205.991 76.7725C206.409 77.0883 206.814 77.3509 207.206 77.5592C207.598 77.768 208.023 77.9186 208.481 78.0103V75.5808C207.931 75.4283 207.45 75.26 207.038 75.0765C206.625 74.8935 206.284 74.6745 206.014 74.4196C205.744 74.1651 205.54 73.8676 205.403 73.5259C205.266 73.1848 205.197 72.7905 205.197 72.3419V72.3115C205.197 71.8837 205.273 71.4969 205.426 71.1502C205.579 70.804 205.795 70.5034 206.075 70.249C206.355 69.9945 206.694 69.7882 207.091 69.6301C207.488 69.4724 207.926 69.368 208.405 69.3168V68.4308H209.994V69.3477C210.544 69.4293 211.051 69.5642 211.514 69.7522C211.977 69.9413 212.418 70.1831 212.836 70.4781L211.812 72.2653C211.506 72.0621 211.196 71.8811 210.88 71.7235C210.564 71.5653 210.243 71.4457 209.917 71.3641V73.6709C211.079 73.9867 211.922 74.3993 212.446 74.9087C212.971 75.4181 213.233 76.1004 213.233 76.956V76.9864C213.233 77.4142 213.154 77.8015 212.996 78.1477C212.838 78.4944 212.619 78.7945 212.339 79.0489C212.059 79.3039 211.72 79.5127 211.323 79.6754C210.926 79.8386 210.483 79.9456 209.994 79.9963V81.5088H208.405V79.9659Z" fill="#16171B"/>
</svg>
