<svg width="506" height="273" viewBox="0 0 506 273" fill="none" xmlns="http://www.w3.org/2000/svg">
<path fill-rule="evenodd" clip-rule="evenodd" d="M22.4989 269.987C22.4989 269.987 0 248.522 0 216.921C0 185.319 24.2597 150.956 32.8773 135.854C41.4949 120.753 47.9024 102.95 37.4226 73.9661C26.9428 44.9823 46.9492 15.8349 83.4245 5.30471C119.9 -5.2255 166.261 1.21077 187.515 13.3457C208.77 25.4807 245.183 47.5979 304.693 36.5393C364.202 25.4807 425.937 50.5807 438.593 97.6263C451.249 144.672 431.648 197.792 394.725 230.865C357.802 263.938 336.531 267.806 336.531 267.806L22.4989 269.987Z" fill="#E1EAF1"/>
<path fill-rule="evenodd" clip-rule="evenodd" d="M57.3258 269.2C57.3258 269.2 32.9831 252.008 42.8418 213.378C52.7004 174.749 61.9512 171.854 57.3258 134.46C52.7004 97.067 59.6993 69.5871 97.0766 51.2967C134.454 33.0064 166.027 44.2774 195.482 51.2967C224.937 58.316 290.169 32.8628 315.953 35.1454C341.736 37.428 400.575 40.2288 407.121 107.488C413.666 174.748 370.744 227.89 358.665 248.888C346.586 269.885 338.316 266.412 338.316 266.412L57.3258 269.2Z" fill="#C4D2E3" stroke="#C4D2E3"/>
<path fill-rule="evenodd" clip-rule="evenodd" d="M103.884 270.095C103.884 270.095 86.9096 200.546 89.2936 176.25C91.6776 151.955 102.192 139.39 112.884 132.387C123.576 125.383 166.791 122.962 190.272 139.217C213.754 155.472 218.126 143.412 245.188 143.412C272.249 143.412 310.595 157.797 336.96 220.39C363.325 282.984 358.141 270.895 358.141 270.895L103.884 270.095Z" fill="#B2C3DA"/>
<path fill-rule="evenodd" clip-rule="evenodd" d="M447.238 215.986C442.856 215.986 438.598 214.729 435.778 211.673C429.346 204.7 438.066 195.959 440.026 187.915C441.191 183.132 443.962 181.29 447.256 181.29C451.688 181.29 457.068 184.625 460.759 188.625C467.192 195.598 467.715 205.579 461.928 210.918C458.676 213.919 452.855 215.986 447.238 215.986Z" fill="#D7E2EC"/>
<path fill-rule="evenodd" clip-rule="evenodd" d="M420.462 64.7512C414.254 64.7512 408.559 55.7419 402.508 51.7689C392.668 45.3091 399.133 35.6683 406.597 31.7284C408.871 30.5282 411.312 29.9579 413.717 29.9579C419.203 29.9579 424.505 32.92 427.244 38.1091C431.184 45.5726 431.064 60.0021 423.6 63.9419C422.538 64.5028 421.493 64.7512 420.462 64.7512Z" fill="#D7E2EC"/>
<path fill-rule="evenodd" clip-rule="evenodd" d="M485.228 270.437H17.132C16.5034 270.437 15.9944 269.928 15.9944 269.3C15.9944 268.671 16.5034 268.161 17.132 268.161H485.228C485.856 268.161 486.366 268.671 486.366 269.3C486.366 269.928 485.856 270.437 485.228 270.437Z" fill="#A1B5D3"/>
<path fill-rule="evenodd" clip-rule="evenodd" d="M470.61 162.702C470.61 164.491 469.16 165.942 467.37 165.942C465.581 165.942 464.13 164.491 464.13 162.702C464.13 160.912 465.581 159.462 467.37 159.462C469.16 159.462 470.61 160.912 470.61 162.702Z" fill="#131232"/>
<path fill-rule="evenodd" clip-rule="evenodd" d="M446.85 252.702C446.85 254.093 445.722 255.222 444.33 255.222C442.939 255.222 441.81 254.093 441.81 252.702C441.81 251.31 442.939 250.182 444.33 250.182C445.722 250.182 446.85 251.31 446.85 252.702Z" fill="#53609D"/>
<path fill-rule="evenodd" clip-rule="evenodd" d="M56.6102 50.3814C56.6102 52.1713 55.1602 53.6214 53.3702 53.6214C51.581 53.6214 50.1302 52.1713 50.1302 50.3814C50.1302 48.5922 51.581 47.1414 53.3702 47.1414C55.1602 47.1414 56.6102 48.5922 56.6102 50.3814Z" fill="#53609D"/>
<path fill-rule="evenodd" clip-rule="evenodd" d="M22.8761 243.289C22.8761 245.19 21.3361 246.731 19.4353 246.731C17.5345 246.731 15.9944 245.19 15.9944 243.289C15.9944 241.389 17.5345 239.848 19.4353 239.848C21.3361 239.848 22.8761 241.389 22.8761 243.289Z" fill="#131232"/>
<path fill-rule="evenodd" clip-rule="evenodd" d="M445.055 37.3818C444.751 38.8002 443.356 39.7045 441.937 39.4014C440.518 39.099 439.614 37.7029 439.917 36.2838C440.219 34.8654 441.615 33.9611 443.034 34.2642C444.453 34.5673 445.358 35.9627 445.055 37.3818Z" fill="#F2AE50"/>
<path fill-rule="evenodd" clip-rule="evenodd" d="M106.753 20.667C106.449 22.0854 105.054 22.9905 103.635 22.6873C102.216 22.3842 101.312 20.9881 101.615 19.5697C101.918 18.1506 103.313 17.2463 104.732 17.5487C106.151 17.8518 107.056 19.2479 106.753 20.667Z" fill="#F2AE50"/>
<path fill-rule="evenodd" clip-rule="evenodd" d="M466.7 96.5219C466.397 97.9403 465.001 98.8447 463.582 98.5423C462.163 98.2391 461.258 96.8431 461.561 95.4247C461.865 94.0055 463.26 93.1012 464.679 93.4036C466.098 93.7067 467.003 95.1028 466.7 96.5219Z" fill="#53609D"/>
<path fill-rule="evenodd" clip-rule="evenodd" d="M277.589 32.6536C277.352 33.766 276.257 34.4752 275.145 34.2376C274.032 34 273.322 32.9056 273.56 31.7932C273.798 30.6801 274.892 29.9709 276.004 30.2085C277.118 30.4461 277.827 31.5412 277.589 32.6536Z" fill="#131232"/>
<path fill-rule="evenodd" clip-rule="evenodd" d="M175.84 83.014C175.84 78.5241 172.2 74.8838 167.71 74.8838C172.2 74.8838 175.84 71.2435 175.84 66.7535C175.84 71.2435 179.481 74.8838 183.97 74.8838C179.481 74.8838 175.84 78.5241 175.84 83.014Z" fill="#FFFFFE"/>
<path fill-rule="evenodd" clip-rule="evenodd" d="M271.354 123.891C271.354 120.594 268.681 117.92 265.383 117.92C268.681 117.92 271.354 115.246 271.354 111.949C271.354 115.246 274.027 117.92 277.325 117.92C274.027 117.92 271.354 120.594 271.354 123.891Z" fill="#FFFFFE"/>
<path fill-rule="evenodd" clip-rule="evenodd" d="M232.326 152.647C232.326 146.584 227.41 141.667 221.346 141.667C227.41 141.667 232.326 136.752 232.326 130.688C232.326 136.752 237.241 141.667 243.305 141.667C237.241 141.667 232.326 146.584 232.326 152.647Z" fill="#FFFFFE"/>
<path fill-rule="evenodd" clip-rule="evenodd" d="M270.231 67.9329C270.231 62.2506 265.625 57.6441 259.943 57.6441C265.625 57.6441 270.231 53.0368 270.231 47.3546C270.231 53.0368 274.838 57.6441 280.521 57.6441C274.838 57.6441 270.231 62.2506 270.231 67.9329Z" fill="#FDF1E0"/>
<path fill-rule="evenodd" clip-rule="evenodd" d="M304.627 74.8838C304.627 71.7496 302.086 69.208 298.951 69.208C302.086 69.208 304.627 66.6671 304.627 63.533C304.627 66.6671 307.167 69.208 310.302 69.208C307.167 69.208 304.627 71.7496 304.627 74.8838Z" fill="#FFFFFE"/>
<path fill-rule="evenodd" clip-rule="evenodd" d="M67.4945 36.9463C60.9929 36.9463 55.7225 42.2174 55.7225 48.719C55.7225 55.2206 60.9929 60.4917 67.4945 60.4917H119.592L126.76 67.0228V60.4917H130.711C137.212 60.4917 142.483 55.2206 142.483 48.719C142.483 42.2174 137.212 36.9463 130.711 36.9463H67.4945Z" fill="#E16B47"/>
<path fill-rule="evenodd" clip-rule="evenodd" d="M131.406 43.2758H73.9981C73.7463 43.2758 73.5419 43.1145 73.5419 42.9158C73.5419 42.7163 73.7463 42.5558 73.9981 42.5558H131.406C131.658 42.5558 131.862 42.7163 131.862 42.9158C131.862 43.1145 131.658 43.2758 131.406 43.2758Z" fill="#FFFFFE"/>
<path fill-rule="evenodd" clip-rule="evenodd" d="M122.763 53.9044H74.0006C73.7474 53.9044 73.5419 53.7432 73.5419 53.5444C73.5419 53.345 73.7474 53.1844 74.0006 53.1844H122.763C123.017 53.1844 123.222 53.345 123.222 53.5444C123.222 53.7432 123.017 53.9044 122.763 53.9044Z" fill="#FFFFFE"/>
<path fill-rule="evenodd" clip-rule="evenodd" d="M109.088 48.9264H73.9955C73.7451 48.9264 73.5419 48.7651 73.5419 48.5664C73.5419 48.3669 73.7451 48.2064 73.9955 48.2064H109.088C109.339 48.2064 109.542 48.3669 109.542 48.5664C109.542 48.7651 109.339 48.9264 109.088 48.9264Z" fill="#FFFFFE"/>
<path fill-rule="evenodd" clip-rule="evenodd" d="M131.403 48.9264H113.6C113.346 48.9264 113.142 48.7651 113.142 48.5664C113.142 48.3669 113.346 48.2064 113.6 48.2064H131.403C131.657 48.2064 131.862 48.3669 131.862 48.5664C131.862 48.7651 131.657 48.9264 131.403 48.9264Z" fill="#FFFFFE"/>
<path fill-rule="evenodd" clip-rule="evenodd" d="M492.936 110C499.607 110 505.014 115.408 505.014 122.078C505.014 128.749 499.607 134.156 492.936 134.156H439.485L432.132 140.857V134.156H428.078C421.408 134.156 416 128.749 416 122.078C416 115.408 421.408 110 428.078 110H492.936Z" fill="#53609D"/>
<path fill-rule="evenodd" clip-rule="evenodd" d="M485.866 117.201H431.293C431.053 117.201 430.859 117.041 430.859 116.841C430.859 116.643 431.053 116.481 431.293 116.481H485.866C486.105 116.481 486.299 116.643 486.299 116.841C486.299 117.041 486.105 117.201 485.866 117.201Z" fill="#FFFFFE"/>
<path fill-rule="evenodd" clip-rule="evenodd" d="M477.227 127.831H431.291C431.052 127.831 430.859 127.669 430.859 127.471C430.859 127.271 431.052 127.111 431.291 127.111H477.227C477.466 127.111 477.659 127.271 477.659 127.471C477.659 127.669 477.466 127.831 477.227 127.831Z" fill="#FFFFFE"/>
<path fill-rule="evenodd" clip-rule="evenodd" d="M464.984 122.852H431.295C431.054 122.852 430.859 122.691 430.859 122.492C430.859 122.293 431.054 122.132 431.295 122.132H464.984C465.225 122.132 465.419 122.293 465.419 122.492C465.419 122.691 465.225 122.852 464.984 122.852Z" fill="#FFFFFE"/>
<path fill-rule="evenodd" clip-rule="evenodd" d="M485.858 122.852H468.74C468.497 122.852 468.299 122.691 468.299 122.492C468.299 122.293 468.497 122.132 468.74 122.132H485.858C486.102 122.132 486.299 122.293 486.299 122.492C486.299 122.691 486.102 122.852 485.858 122.852Z" fill="#FFFFFE"/>
<path fill-rule="evenodd" clip-rule="evenodd" d="M375.809 47.626C380.404 47.626 384.13 51.3513 384.13 55.9463C384.13 60.5421 380.404 64.2673 375.809 64.2673H344.734V68.4575L340.568 64.2673H331.13C326.535 64.2673 322.809 60.5421 322.809 55.9463C322.809 51.3513 326.535 47.626 331.13 47.626H375.809Z" fill="#53609D"/>
<path fill-rule="evenodd" clip-rule="evenodd" d="M370.766 53.2096H336.124C335.926 53.2096 335.764 53.049 335.764 52.8496C335.764 52.6508 335.926 52.4896 336.124 52.4896H370.766C370.964 52.4896 371.126 52.6508 371.126 52.8496C371.126 53.049 370.964 53.2096 370.766 53.2096Z" fill="#FFFFFE"/>
<path fill-rule="evenodd" clip-rule="evenodd" d="M365.392 59.5038H336.124C335.926 59.5038 335.764 59.3433 335.764 59.1438C335.764 58.9451 335.926 58.7838 336.124 58.7838H365.392C365.59 58.7838 365.752 58.9451 365.752 59.1438C365.752 59.3433 365.59 59.5038 365.392 59.5038Z" fill="#FFFFFE"/>
<path fill-rule="evenodd" clip-rule="evenodd" d="M357.421 56.5561H336.124C335.926 56.5561 335.764 56.3948 335.764 56.1961C335.764 55.9967 335.926 55.8361 336.124 55.8361H357.421C357.621 55.8361 357.781 55.9967 357.781 56.1961C357.781 56.3948 357.621 56.5561 357.421 56.5561Z" fill="#FFFFFE"/>
<path fill-rule="evenodd" clip-rule="evenodd" d="M370.766 56.5561H360.077C359.878 56.5561 359.717 56.3948 359.717 56.1961C359.717 55.9967 359.878 55.8361 360.077 55.8361H370.766C370.965 55.8361 371.126 55.9967 371.126 56.1961C371.126 56.3948 370.965 56.5561 370.766 56.5561Z" fill="#FFFFFE"/>
<path fill-rule="evenodd" clip-rule="evenodd" d="M68.0411 165.584C72.1271 165.584 75.4391 168.897 75.4391 172.983C75.4391 177.069 72.1271 180.381 68.0411 180.381H64.2703L63.9162 184.017L59.7141 180.381H28.3136C24.2269 180.381 20.9149 177.069 20.9149 172.983C20.9149 168.897 24.2269 165.584 28.3136 165.584H68.0411Z" fill="#E16B47"/>
<path fill-rule="evenodd" clip-rule="evenodd" d="M63.5563 170.59H32.7547C32.5559 170.59 32.3947 170.429 32.3947 170.23C32.3947 170.03 32.5559 169.87 32.7547 169.87H63.5563C63.7557 169.87 63.9163 170.03 63.9163 170.23C63.9163 170.429 63.7557 170.59 63.5563 170.59Z" fill="#FFFFFE"/>
<path fill-rule="evenodd" clip-rule="evenodd" d="M58.7776 176.186H32.7547C32.5559 176.186 32.3947 176.025 32.3947 175.826C32.3947 175.628 32.5559 175.466 32.7547 175.466H58.7776C58.9763 175.466 59.1376 175.628 59.1376 175.826C59.1376 176.025 58.9763 176.186 58.7776 176.186Z" fill="#FFFFFE"/>
<path fill-rule="evenodd" clip-rule="evenodd" d="M51.6907 173.564H32.7547C32.5559 173.564 32.3947 173.404 32.3947 173.204C32.3947 173.005 32.5559 172.844 32.7547 172.844H51.6907C51.8901 172.844 52.0507 173.005 52.0507 173.204C52.0507 173.404 51.8901 173.564 51.6907 173.564Z" fill="#FFFFFE"/>
<path fill-rule="evenodd" clip-rule="evenodd" d="M63.5562 173.564H54.0529C53.8534 173.564 53.6929 173.404 53.6929 173.204C53.6929 173.005 53.8534 172.844 54.0529 172.844H63.5562C63.7556 172.844 63.9162 173.005 63.9162 173.204C63.9162 173.404 63.7556 173.564 63.5562 173.564Z" fill="#FFFFFE"/>
<path d="M52.0505 183.744V228.554C52.0505 233.303 55.8835 237.162 60.6324 237.193L211.33 238.207C216.102 238.239 219.997 234.397 220.028 229.625L220.352 180.859C220.383 176.071 224.302 172.222 229.089 172.277L431.12 174.565C435.93 174.62 439.858 170.736 439.858 165.926V139.52" stroke="#2C4B72" stroke-width="1.44" stroke-linecap="square"/>
<path d="M102.451 31.1613V16.7125C102.451 11.9631 106.284 8.10422 111.033 8.07267L263.196 7.062C268.231 7.02856 272.228 11.2897 271.872 16.3118L271.484 21.7936C271.123 26.8962 275.249 31.1936 280.362 31.0398L344.558 29.1089C349.43 28.9624 353.458 32.8715 353.458 37.745V44.5854" stroke="#2C4B72" stroke-width="1.44" stroke-linecap="square"/>
<path fill-rule="evenodd" clip-rule="evenodd" d="M194.496 162.967L194.472 162.885L184.048 126.621L184.093 126.587C183.624 125.669 182.409 123.701 179.923 121.967C175.625 118.97 175.112 114.004 175.112 114.004C172.817 111.783 170.231 109.887 167.888 107.718C167.643 107.491 167.388 107.244 167.317 106.918C167.237 106.555 167.406 106.184 167.614 105.876C168.823 104.084 171.046 103.825 172.894 104.653C173.977 105.138 174.945 105.827 175.853 106.586C176.283 106.945 177.752 107.933 178.198 108.591L169.906 90.8867C169.17 89.3142 169.651 87.52 170.977 86.9C171.639 86.589 172.392 86.6293 173.071 86.9425C173.502 87.1412 173.895 87.4609 174.225 87.8612C174.199 87.7309 174.184 87.6546 174.184 87.6546C183.896 79.4884 195.879 107.284 195.879 107.284L199.279 115.308L228.123 168.788C232.202 176.547 229.059 186.142 221.178 189.984C221.065 190.04 220.951 190.088 220.836 190.14C218.524 191.476 215.842 192.243 212.981 192.243H156.216L143.984 163.171L194.496 162.967Z" fill="#F4BE99"/>
<path fill-rule="evenodd" clip-rule="evenodd" d="M203.742 192.242C203.742 192.242 202.324 188.302 200.606 183.161C200.197 182.363 199.848 181.52 199.572 180.628L197.576 173.684C197.049 171.938 196.552 170.225 196.124 168.63L194.496 162.967L185.552 163.003C184.9 163.009 184.179 163.012 183.354 163.012L183.328 163.013L203.742 192.242Z" fill="#F2B292"/>
<path fill-rule="evenodd" clip-rule="evenodd" d="M186.253 110.401C186.327 110.401 186.402 110.378 186.466 110.33C186.626 110.213 186.661 109.987 186.542 109.827C182.919 104.913 178.049 107.568 178.001 107.595C177.828 107.693 177.766 107.911 177.864 108.085C177.96 108.257 178.18 108.319 178.353 108.224C178.53 108.125 182.723 105.861 185.963 110.255C186.033 110.35 186.142 110.401 186.253 110.401Z" fill="#E98772"/>
<path fill-rule="evenodd" clip-rule="evenodd" d="M174.019 87.7914C175.516 89.6771 176.908 91.6607 178.142 93.7227C178.757 94.7552 179.314 95.8208 179.78 96.9138C180.239 97.9988 180.61 99.1652 180.551 100.265L180.55 100.288C180.539 100.486 180.691 100.656 180.89 100.666C181.088 100.677 181.258 100.525 181.269 100.327V100.317C181.308 98.9787 180.867 97.7821 180.375 96.6589C179.868 95.535 179.278 94.4607 178.634 93.4254C177.339 91.3561 175.902 89.3948 174.349 87.5178C174.274 87.4263 174.138 87.4134 174.047 87.489C173.957 87.5631 173.943 87.6963 174.016 87.7878L174.019 87.7914Z" fill="#E98772"/>
<path fill-rule="evenodd" clip-rule="evenodd" d="M176.522 86.7646C177.472 87.4184 178.325 88.2846 179.088 89.1838C179.852 90.0932 180.523 91.0789 181.126 92.1027C181.718 93.1338 182.239 94.2058 182.683 95.3096C182.919 95.8561 183.094 96.427 183.303 96.9829L183.819 98.6929L183.825 98.713C183.882 98.9031 184.083 99.0111 184.274 98.9535C184.463 98.8959 184.571 98.695 184.514 98.505L184.512 98.4985L183.951 96.7604C183.727 96.1938 183.537 95.6149 183.285 95.0598C182.809 93.938 182.254 92.8501 181.628 91.8046C180.989 90.7664 180.282 89.7685 179.479 88.849C178.667 87.9332 177.804 87.0764 176.754 86.3823C176.651 86.3146 176.512 86.3427 176.445 86.4457C176.378 86.5472 176.404 86.684 176.504 86.7524L176.522 86.7646Z" fill="#E98772"/>
<path fill-rule="evenodd" clip-rule="evenodd" d="M180.448 87.0411C181.826 88.484 183.109 90.0428 184.218 91.6995C184.765 92.5311 185.291 93.3814 185.704 94.2778C186.119 95.1699 186.463 96.0973 186.613 97.0434L186.615 97.052C186.645 97.2486 186.829 97.3825 187.026 97.3515C187.222 97.3198 187.356 97.1355 187.325 96.939L187.324 96.9303C187.131 95.8842 186.739 94.915 186.284 93.9942C185.828 93.0697 185.267 92.2129 184.689 91.377C183.511 89.7123 182.184 88.178 180.742 86.7416C180.66 86.6602 180.527 86.6602 180.446 86.7423C180.366 86.823 180.364 86.9533 180.442 87.0354L180.448 87.0411Z" fill="#E98772"/>
<path fill-rule="evenodd" clip-rule="evenodd" d="M63.4823 215.771L77.4071 177.814C79.0646 169.485 86.9874 163.171 96.5202 163.171L135.416 162.861L179.238 163.029V192.242H165.638L172.657 268.437L76.1615 268.983L76.7022 217.388L63.4823 215.771Z" fill="#53609D"/>
<path fill-rule="evenodd" clip-rule="evenodd" d="M165.638 192.242H179.238V163.029L138.114 162.872V163.342C153.547 164.861 165.567 176.87 165.567 191.471L165.638 192.242Z" fill="#515E9B"/>
<path fill-rule="evenodd" clip-rule="evenodd" d="M188.273 141.31C188.471 141.309 190.872 120.913 190.872 120.913L184.092 126.584C184.092 126.585 184.092 126.586 184.093 126.587L184.048 126.621C184.048 126.621 184.051 126.632 184.057 126.652C184.058 126.655 184.059 126.658 184.059 126.66L184.06 126.664C184.061 126.667 184.062 126.669 184.063 126.672C184.064 126.676 184.064 126.679 184.066 126.683L184.067 126.686C184.067 126.687 184.067 126.689 184.068 126.691C184.069 126.692 184.069 126.694 184.069 126.695L184.071 126.701L188.268 141.304C188.27 141.308 188.271 141.31 188.273 141.31Z" fill="#F2B292"/>
<path fill-rule="evenodd" clip-rule="evenodd" d="M133.432 226.675L139.956 193.795C140.29 192.111 141.942 191.006 143.626 191.34L157.851 194.162C159.535 194.496 160.64 196.148 160.306 197.833L153.782 230.713C153.448 232.398 151.796 233.502 150.111 233.167L141.71 231.501L135.887 230.346C134.204 230.012 133.098 228.359 133.432 226.675Z" fill="#16171B"/>
<path fill-rule="evenodd" clip-rule="evenodd" d="M57.7194 243.781L64.1332 215.85L93.2968 219.418L91.6955 226.523L91.8438 226.486L123.545 218.638L123.573 218.677C124.448 218.238 126.091 217.193 127.537 215.033C130.195 211.06 134.66 210.951 134.66 210.951C135.52 210.05 136.322 209.087 137.115 208.115L136.372 211.858L136.558 211.957C138.573 213.025 140.847 213.498 143.121 213.32C147.328 212.992 154.203 212.455 157.061 212.233C157.933 212.164 158.77 212.629 159.146 213.418C163.226 221.994 145.707 229.842 141.71 231.501H141.71L141.569 231.559L141.406 231.626L141.254 231.688L141.126 231.739L141.007 231.786L140.961 231.804L140.901 231.827L134.045 234.398L79.768 261.113C79.264 261.355 78.7542 261.566 78.2394 261.748C75.6078 262.954 72.5795 263.346 69.539 262.648C61.0653 260.702 55.7733 252.254 57.7194 243.781Z" fill="#F4BE99"/>
<path fill-rule="evenodd" clip-rule="evenodd" d="M91.6955 226.523L91.8438 226.486C92.7121 222.658 92.3097 223.871 92.9663 220.883L91.6955 226.523Z" fill="#62639D"/>
<path fill-rule="evenodd" clip-rule="evenodd" d="M59.7873 234.776C59.919 234.73 79.9451 227.7 89.5636 227.05L91.8438 226.486L91.6955 226.523L92.9663 220.883C93.0549 220.484 93.1614 220.009 93.2925 219.436L93.2651 219.433L59.7866 234.776H59.7873Z" fill="#F2B292"/>
<path fill-rule="evenodd" clip-rule="evenodd" d="M96.0048 219.778C96.1725 219.778 96.3216 219.66 96.3561 219.492L100.544 199.211C100.584 199.016 100.458 198.825 100.264 198.785C100.238 198.779 100.213 198.776 100.188 198.776C100.025 198.776 99.8733 198.895 99.8388 199.064L95.7182 219.019L81.617 217.224C81.6004 217.222 81.5846 217.221 81.568 217.221C81.3924 217.221 81.2376 217.355 81.2145 217.536C81.1893 217.733 81.329 217.913 81.5256 217.939L89.5032 218.954L93.2968 219.418L93.2932 219.436L95.958 219.775L96.0048 219.778Z" fill="#3C4A8D"/>
<path fill-rule="evenodd" clip-rule="evenodd" d="M99.3067 87.9757C100.194 81.8607 105.773 77.5105 111.956 78.2096C113.597 78.3947 115.114 78.9239 116.453 79.7065C118.444 76.4507 122.189 74.4563 126.23 74.9135C128.539 75.1741 130.572 76.2001 132.122 77.7006C134.353 76.5824 136.919 76.0691 139.583 76.37C146.905 77.198 152.17 83.8047 151.342 91.1264C150.954 94.5507 149.299 97.5207 146.902 99.6318L149.614 114.117C150.392 118.275 147.652 122.276 143.495 123.056L111.365 129.07C107.207 129.849 103.205 127.108 102.426 122.95L97.1625 94.8323C96.6772 92.2374 97.5621 89.703 99.3067 87.9757Z" fill="#16171B"/>
<path fill-rule="evenodd" clip-rule="evenodd" d="M146.135 95.8957C146.254 95.8957 146.371 95.8367 146.44 95.728C152.178 86.6459 144.274 80.8225 144.194 80.7649C144.032 80.6476 143.808 80.6864 143.691 80.847C143.576 81.0083 143.613 81.2329 143.774 81.3496C144.079 81.5699 151.203 86.8432 145.831 95.3435C145.725 95.512 145.775 95.7344 145.942 95.8403C146.002 95.8777 146.069 95.8957 146.135 95.8957Z" fill="#FDF1E0"/>
<path fill-rule="evenodd" clip-rule="evenodd" d="M104.504 116.371L105.206 116.24L112.299 100.995C114.044 100.743 115.679 100.1 117.097 99.14C118.458 100.613 120.329 101.628 122.478 101.872C125.065 102.164 127.508 101.279 129.29 99.6519C131.267 101.39 133.772 102.566 136.585 102.885C139.803 103.249 142.882 102.435 145.394 100.787L150.334 127.178C151.016 130.824 150.268 134.398 148.504 137.35C146.747 141.693 142.972 145.103 138.114 146.222V163.65C138.114 169.704 133.16 174.657 127.107 174.657H123.635C117.581 174.657 112.627 169.704 112.627 163.65V143.861C110.842 141.899 109.55 139.445 109.027 136.646L108.125 131.827L107.421 131.959C103.251 132.74 99.2001 129.966 98.4196 125.796L98.3404 125.373C97.56 121.203 100.333 117.152 104.504 116.371Z" fill="#F4BE99"/>
<path fill-rule="evenodd" clip-rule="evenodd" d="M123.64 152.71H127.157C131.511 152.71 135.285 150.141 137.066 146.45L137.513 146.366C137.716 146.328 137.916 146.286 138.114 146.241V146.222C142.962 145.106 146.733 141.706 148.493 137.376C148.496 137.367 148.5 137.359 148.504 137.35C146.429 140.819 142.947 143.424 138.662 144.226L127.45 146.326C126.541 146.496 125.638 146.578 124.746 146.578C117.852 146.577 111.716 141.676 110.402 134.654L109.757 131.216L108.125 131.827L109.027 136.646C109.55 139.445 110.842 141.899 112.627 143.861V143.876C112.727 143.986 112.829 144.094 112.932 144.2C114.072 149.06 118.446 152.71 123.64 152.71Z" fill="#EFA88D"/>
<path fill-rule="evenodd" clip-rule="evenodd" d="M103.887 126.708C103.964 126.708 104.042 126.684 104.108 126.632L106.908 124.458C106.992 124.394 107.042 124.296 107.047 124.191C107.053 124.087 107.011 123.984 106.935 123.912L103.48 120.651C103.336 120.515 103.107 120.521 102.972 120.666C102.835 120.811 102.842 121.038 102.987 121.175L106.135 124.147L103.665 126.064C103.509 126.186 103.48 126.412 103.603 126.569C103.673 126.661 103.78 126.708 103.887 126.708Z" fill="#E98772"/>
<path fill-rule="evenodd" clip-rule="evenodd" d="M121.702 113.312C122.242 113.296 122.8 112.968 123.355 112.683C123.91 112.383 124.474 112.096 124.972 111.863C125.472 111.631 126.055 111.383 126.641 111.151C127.217 110.908 127.829 110.691 128.182 110.29C128.526 109.909 128.459 109.309 127.653 108.907C126.886 108.507 125.325 108.412 123.67 109.179C122.021 109.953 121.109 111.201 120.941 112.036C120.752 112.901 121.184 113.333 121.702 113.312Z" fill="#16171B"/>
<path fill-rule="evenodd" clip-rule="evenodd" d="M144.611 111.338C144.144 111.595 143.5 111.629 142.878 111.695C142.251 111.749 141.622 111.818 141.077 111.894C140.532 111.97 139.907 112.077 139.289 112.197C138.673 112.305 138.041 112.449 137.53 112.328C137.038 112.218 136.778 111.741 137.249 111.045C137.688 110.369 138.961 109.523 140.767 109.266C142.572 109.018 144.001 109.486 144.583 110.018C145.199 110.563 145.061 111.095 144.611 111.338Z" fill="#16171B"/>
<path fill-rule="evenodd" clip-rule="evenodd" d="M126.997 119.466L126.948 119.476C126.466 119.566 125.999 119.245 125.908 118.764L125.695 117.623C125.605 117.141 125.926 116.673 126.407 116.583L126.456 116.574C126.937 116.484 127.405 116.805 127.495 117.286L127.709 118.427C127.799 118.908 127.479 119.376 126.997 119.466Z" fill="#16171B"/>
<path fill-rule="evenodd" clip-rule="evenodd" d="M142.516 116.945L142.468 116.954C141.986 117.044 141.518 116.723 141.428 116.242L141.215 115.102C141.124 114.62 141.445 114.152 141.926 114.062L141.975 114.053C142.456 113.963 142.924 114.282 143.015 114.764L143.228 115.905C143.319 116.387 142.998 116.854 142.516 116.945Z" fill="#16171B"/>
<path fill-rule="evenodd" clip-rule="evenodd" d="M123.047 123.958C123.088 123.958 123.129 123.956 123.17 123.951L126.357 123.593C126.96 123.525 127.398 122.976 127.331 122.373L127.323 122.312C127.26 121.749 126.78 121.332 126.226 121.332C126.186 121.332 126.145 121.334 126.104 121.338L122.918 121.697C122.314 121.765 121.876 122.314 121.944 122.917L121.951 122.978C122.014 123.539 122.495 123.958 123.047 123.958Z" fill="#F2B292"/>
<path fill-rule="evenodd" clip-rule="evenodd" d="M144.06 120.648C144.101 120.648 144.142 120.646 144.183 120.641L147.369 120.282C147.973 120.214 148.411 119.666 148.342 119.063L148.336 119.002C148.272 118.44 147.792 118.021 147.239 118.021C147.199 118.021 147.158 118.023 147.116 118.029L143.93 118.386C143.327 118.455 142.889 119.004 142.957 119.607L142.964 119.668C143.027 120.23 143.508 120.648 144.06 120.648Z" fill="#F2B292"/>
<path fill-rule="evenodd" clip-rule="evenodd" d="M138.084 136.582C138.195 136.582 138.305 136.531 138.375 136.435C138.493 136.274 138.457 136.049 138.297 135.931C136.788 134.829 135.098 135.447 134.415 135.928C134.253 136.042 134.213 136.265 134.327 136.428C134.441 136.59 134.665 136.629 134.828 136.517C134.892 136.473 136.41 135.444 137.872 136.513C137.936 136.56 138.011 136.582 138.084 136.582Z" fill="#E98772"/>
<path fill-rule="evenodd" clip-rule="evenodd" d="M135.649 126.348L127.23 125.145L128.151 128.07C128.742 129.942 130.478 131.216 132.442 131.216C133.969 131.216 135.251 130.065 135.413 128.546L135.649 126.348Z" fill="#FFFFFE"/>
<path fill-rule="evenodd" clip-rule="evenodd" d="M133.473 123.363L133.564 123.351L136.174 122.672C137.282 122.384 138.174 121.615 138.625 120.564C139.075 119.512 139.015 118.335 138.46 117.335L134.484 110.178C134.386 110.003 134.168 109.942 133.995 110.039C133.821 110.135 133.758 110.354 133.854 110.528L137.83 117.684C138.277 118.489 138.325 119.435 137.963 120.28C137.601 121.126 136.883 121.744 135.993 121.975L133.382 122.655C133.189 122.705 133.074 122.901 133.125 123.094C133.166 123.256 133.312 123.363 133.473 123.363Z" fill="#E98772"/>
<mask id="mask0_1_595" style="mask-type:luminance" maskUnits="userSpaceOnUse" x="284" y="194" width="2" height="1">
<path fill-rule="evenodd" clip-rule="evenodd" d="M285.606 194.229C284.86 194.206 284.598 194.198 284.599 194.198C284.601 194.198 285.172 194.215 285.606 194.229Z" fill="white"/>
</mask>
<g mask="url(#mask0_1_595)">
<path fill-rule="evenodd" clip-rule="evenodd" d="M284.598 194.229H285.606V194.198H284.598V194.229Z" fill="#F2B292"/>
</g>
<path fill-rule="evenodd" clip-rule="evenodd" d="M286.081 194.242C285.915 194.238 285.775 194.233 285.642 194.229C285.889 194.237 286.081 194.242 286.081 194.242Z" fill="#F2B292"/>
<path fill-rule="evenodd" clip-rule="evenodd" d="M304.271 165.003L295.327 164.967L295.351 164.885C299.445 164.889 300.932 164.975 304.271 165.003Z" fill="#BBBAD2"/>
<path fill-rule="evenodd" clip-rule="evenodd" d="M301.554 143.304L305.752 128.701C305.424 129.842 301.694 142.819 301.556 143.3C301.555 143.302 301.555 143.303 301.554 143.304Z" fill="#CAC4D8"/>
<path fill-rule="evenodd" clip-rule="evenodd" d="M396.558 221.433L396.526 221.418L400.32 220.954L396.558 221.433Z" fill="#A4816D"/>
<path fill-rule="evenodd" clip-rule="evenodd" d="M396.53 221.436C396.529 221.43 396.527 221.425 396.526 221.418L396.558 221.433L396.53 221.436Z" fill="#A37A69"/>
<path fill-rule="evenodd" clip-rule="evenodd" d="M430.321 238.217C430.316 238.188 430.297 238.097 430.264 237.931C430.291 238.068 430.313 238.178 430.321 238.217Z" fill="#F2B292"/>
<path fill-rule="evenodd" clip-rule="evenodd" d="M430.04 236.794C430.038 236.788 430.038 236.782 430.036 236.776C430.036 236.778 430.038 236.784 430.04 236.794Z" fill="#FDEAE6"/>
<path fill-rule="evenodd" clip-rule="evenodd" d="M430.188 237.545C430.148 237.345 430.101 237.107 430.04 236.794C430.056 236.877 430.123 237.216 430.188 237.545Z" fill="#F2B292"/>
<path fill-rule="evenodd" clip-rule="evenodd" d="M430.264 237.931C430.244 237.826 430.22 237.707 430.195 237.583C430.223 237.723 430.246 237.841 430.264 237.931Z" fill="#F2B292"/>
<path fill-rule="evenodd" clip-rule="evenodd" d="M351.709 148.241C346.857 147.126 343.09 143.709 341.329 139.376C343.09 143.706 346.86 147.106 351.709 148.222V148.241ZM377.195 145.876V145.861C378.981 143.899 380.273 141.445 380.796 138.646L381.698 133.827L380.796 138.646C380.272 141.448 378.985 143.913 377.195 145.876Z" fill="#D0B8C9"/>
<path fill-rule="evenodd" clip-rule="evenodd" d="M274.545 177.129L303.388 123.649L306.789 115.624C306.789 115.624 318.772 87.8286 328.484 95.9949C328.484 95.9949 328.469 96.0719 328.443 96.2015C328.773 95.8012 329.166 95.4822 329.597 95.2828C330.277 94.9696 331.029 94.93 331.691 95.2403C333.017 95.8609 333.499 97.6552 332.762 99.2269L324.47 116.932C324.916 116.274 326.385 115.286 326.816 114.927C327.723 114.168 328.691 113.479 329.774 112.993C331.623 112.166 333.845 112.425 335.054 114.217C335.262 114.525 335.431 114.896 335.351 115.258C335.279 115.584 335.025 115.832 334.78 116.058C332.437 118.228 329.851 120.124 327.556 122.344C327.556 122.344 327.043 127.31 322.746 130.307C320.259 132.042 319.045 134.01 318.576 134.927L318.62 134.961L308.173 171.308L323.431 171.512V200.584H289.687C286.822 200.584 284.138 199.814 281.823 198.476C281.712 198.425 281.6 198.378 281.489 198.325C273.61 194.483 270.466 184.888 274.545 177.129Z" fill="#F4BE99"/>
<path fill-rule="evenodd" clip-rule="evenodd" d="M298.926 200.584L319.294 171.457H319.278C317.741 171.457 316.591 171.436 315.597 171.407L308.173 171.308L308.196 171.226C308.169 171.226 308.142 171.225 308.114 171.225C306.767 179.488 298.926 200.584 298.926 200.584ZM298.721 200.577C298.692 200.576 298.664 200.576 298.636 200.574C298.666 200.576 298.695 200.576 298.721 200.577ZM298.459 200.569C298.432 200.568 298.405 200.568 298.379 200.567C298.406 200.568 298.433 200.568 298.459 200.569ZM298.342 200.566C298.307 200.565 298.273 200.563 298.239 200.563C298.274 200.563 298.309 200.565 298.342 200.566ZM298.229 200.562C297.65 200.545 297.439 200.538 297.439 200.538C297.439 200.538 297.842 200.55 298.229 200.562Z" fill="#F2B292"/>
<path fill-rule="evenodd" clip-rule="evenodd" d="M316.415 118.741C316.525 118.741 316.635 118.691 316.705 118.595C319.945 114.201 324.139 116.465 324.315 116.564C324.488 116.66 324.707 116.599 324.805 116.426C324.902 116.252 324.84 116.033 324.667 115.936C324.618 115.909 319.748 113.255 316.126 118.167C316.008 118.327 316.042 118.553 316.202 118.671C316.266 118.718 316.341 118.741 316.415 118.741Z" fill="#E98772"/>
<path fill-rule="evenodd" clip-rule="evenodd" d="M328.333 95.8422C327.459 96.7149 326.665 97.6415 325.908 98.607C325.156 99.574 324.452 100.581 323.822 101.638C323.201 102.7 322.648 103.806 322.208 104.967C321.792 106.135 321.497 107.356 321.398 108.614C321.382 108.812 321.531 108.986 321.729 109.001C321.927 109.017 322.101 108.868 322.116 108.67L322.117 108.665L322.118 108.65C322.187 107.477 322.441 106.315 322.818 105.184C323.218 104.061 323.733 102.975 324.319 101.926C324.913 100.882 325.586 99.8785 326.306 98.9116C327.03 97.9489 327.804 97.0108 328.634 96.1482L328.639 96.1432C328.721 96.0575 328.718 95.9214 328.634 95.8393C328.549 95.758 328.416 95.7601 328.333 95.8422Z" fill="#E98772"/>
<path fill-rule="evenodd" clip-rule="evenodd" d="M325.899 94.4569C324.725 95.0646 323.864 95.9682 323.059 96.9186C322.269 97.8784 321.58 98.9166 320.99 100.003C320.379 101.08 319.875 102.209 319.394 103.347L318.74 105.078L318.158 106.833C318.096 107.022 318.198 107.225 318.386 107.288C318.575 107.351 318.779 107.248 318.842 107.06L318.843 107.055L318.848 107.039L319.388 105.3L320.001 103.587C320.451 102.463 320.925 101.345 321.502 100.282C322.06 99.2089 322.712 98.1865 323.459 97.2441C324.202 96.3181 325.074 95.4095 326.073 94.8695L326.107 94.8508C326.215 94.7925 326.255 94.6571 326.197 94.5491C326.139 94.4425 326.006 94.4015 325.899 94.4569Z" fill="#E98772"/>
<path fill-rule="evenodd" clip-rule="evenodd" d="M321.943 95.0668C321.135 95.7191 320.421 96.4412 319.745 97.2102C319.071 97.9777 318.45 98.7935 317.895 99.6539C317.337 100.511 316.832 101.406 316.414 102.344C315.972 103.272 315.648 104.25 315.352 105.236C315.294 105.427 315.402 105.628 315.593 105.685C315.783 105.741 315.984 105.633 316.041 105.443L316.043 105.437L316.048 105.418C316.31 104.465 316.597 103.512 317.003 102.605C317.386 101.688 317.854 100.807 318.376 99.9592C318.895 99.1081 319.481 98.2974 320.121 97.532C320.758 96.7674 321.454 96.033 322.202 95.398L322.211 95.39C322.299 95.3152 322.311 95.1827 322.236 95.0941C322.161 95.0077 322.032 94.9955 321.943 95.0668Z" fill="#E98772"/>
<path fill-rule="evenodd" clip-rule="evenodd" d="M315.666 145.24C315.666 145.24 316.94 138.908 318.559 135.177L318.621 134.961L318.576 134.927C318.721 134.643 318.938 134.258 319.243 133.809C319.464 133.438 319.688 133.132 319.914 132.911C319.916 132.909 319.917 132.908 319.919 132.906L308.773 131.53L315.666 145.24Z" fill="#F2B292"/>
<path fill-rule="evenodd" clip-rule="evenodd" d="M364.711 171.512L364.709 171.524C364.881 171.521 365.051 171.512 365.225 171.512H400.444C408.091 171.512 414.613 176.313 417.17 183.064L417.173 183.063L417.227 183.209L432.231 224.112L418.326 225.812V271.157H342.645L336.986 200.584H323.821V171.37L364.711 171.512Z" fill="#FFFFFE"/>
<path fill-rule="evenodd" clip-rule="evenodd" d="M323.431 200.584H336.595H323.821V171.371L323.431 171.37V200.584Z" fill="#AABBD6"/>
<path fill-rule="evenodd" clip-rule="evenodd" d="M323.821 200.583H336.595L336.533 199.812C336.533 184.584 348.563 172.17 363.637 171.542L363.638 171.537L323.821 171.371V200.583Z" fill="#F5F5F3"/>
<path fill-rule="evenodd" clip-rule="evenodd" d="M337.474 202.502L351.697 199.681C353.381 199.346 355.033 200.451 355.368 202.135L361.891 235.015C362.226 236.7 361.121 238.352 359.437 238.687L353.614 239.841L345.212 241.508C343.528 241.842 341.876 240.737 341.542 239.053L335.018 206.173C334.684 204.489 335.789 202.837 337.474 202.502Z" fill="#16171B"/>
<path fill-rule="evenodd" clip-rule="evenodd" d="M335.983 221.614C336.16 221.241 336.441 220.945 336.779 220.739C336.839 220.65 336.889 220.561 336.954 220.471C336.954 220.471 337.082 220.486 337.294 220.514C337.541 220.441 337.803 220.407 338.068 220.427C340.925 220.651 347.8 221.187 352.008 221.515C354.281 221.693 356.555 221.22 358.57 220.152L358.907 219.973L358.209 216.456C358.961 217.378 359.725 218.289 360.536 219.15C360.947 219.173 363.294 219.381 365.489 221.018C366.303 221.592 367.105 222.353 367.787 223.373C368.644 224.654 369.569 225.538 370.364 226.141C370.829 226.477 371.243 226.715 371.556 226.872L371.583 226.833L403.287 234.682L403.433 234.718L401.824 227.58L430.995 224.045L437.409 251.976C439.355 260.45 434.063 268.897 425.589 270.843C422.55 271.541 419.521 271.149 416.889 269.944C416.374 269.761 415.864 269.55 415.36 269.309L361.697 242.894L354.422 240.168C354.422 240.168 354.128 240.055 353.614 239.841L353.72 239.821C350.401 238.468 331.791 230.425 335.983 221.614Z" fill="#F4BE99"/>
<path fill-rule="evenodd" clip-rule="evenodd" d="M435.363 243.065L435.356 243.033L402.07 227.748L402.026 227.753C403.015 232.064 402.827 231.811 403.483 234.827L426.326 240.482C426.773 240.603 427.207 240.746 427.632 240.901C431.601 241.954 434.624 242.845 435.363 243.065Z" fill="#F2B292"/>
<path fill-rule="evenodd" clip-rule="evenodd" d="M399.319 228.085L399.364 228.082L401.868 227.773L401.824 227.58L406.018 227.072C406.04 227.018 406.049 226.957 406.041 226.895C406.018 226.714 405.861 226.579 405.686 226.579C405.671 226.579 405.655 226.58 405.64 226.582L399.622 227.324L396.271 205.945C396.243 205.765 396.089 205.641 395.912 205.641C395.895 205.641 395.877 205.642 395.859 205.644C395.663 205.675 395.529 205.86 395.56 206.055L398.964 227.78C398.992 227.957 399.145 228.085 399.319 228.085Z" fill="#A8A8A8"/>
<path fill-rule="evenodd" clip-rule="evenodd" d="M401.868 227.773L402.026 227.753C402.024 227.744 402.022 227.734 402.02 227.725L402.07 227.748L405.728 227.296C405.863 227.28 405.972 227.19 406.018 227.072L401.824 227.58L401.868 227.773Z" fill="#A4816D"/>
<path fill-rule="evenodd" clip-rule="evenodd" d="M391.78 231.833L384.964 230.146L371.065 226.753C370.602 229.236 374.297 231.51 376.971 231.51C377.159 231.51 377.342 231.499 377.517 231.476L391.78 231.833Z" fill="#F3B795"/>
<path fill-rule="evenodd" clip-rule="evenodd" d="M346.556 162.315L351.443 129.059C351.978 125.415 353.037 121.98 354.521 118.807L351.869 118.381C351.869 118.381 353.731 91.3883 384.005 97.833C386.987 97.5248 390.055 97.5767 393.156 98.0324C407.864 100.193 418.035 113.867 415.874 128.575L413.025 147.961C410.865 162.668 397.19 172.839 382.483 170.678L349.133 165.778C347.465 165.532 346.312 163.982 346.556 162.315Z" fill="#16171B"/>
<path fill-rule="evenodd" clip-rule="evenodd" d="M366.64 117.323C366.817 117.323 366.971 117.192 366.997 117.012C367.023 116.814 366.886 116.633 366.688 116.606L356.953 115.276C356.876 115.266 356.804 115.223 356.758 115.158C356.732 115.123 356.692 115.049 356.708 114.953C358.282 106.178 366.367 102.129 366.448 102.09C366.626 102.003 366.701 101.787 366.614 101.608C366.526 101.429 366.309 101.355 366.132 101.443C366.048 101.484 357.64 105.683 356 114.826C355.952 115.092 356.014 115.361 356.176 115.582C356.337 115.804 356.585 115.953 356.856 115.99L366.591 117.319L366.64 117.323Z" fill="#FDF1E0"/>
<path fill-rule="evenodd" clip-rule="evenodd" d="M357.262 119.247L383.911 123.529L390.379 113.963C389.109 124.636 396.978 131.53 396.978 131.53C396.978 131.53 397.059 131.42 397.198 131.218L397.419 131.259C401.59 132.04 404.363 136.091 403.583 140.26C402.802 144.431 398.751 147.204 394.581 146.424L394.071 146.329C393.161 150.328 391.107 153.791 388.305 156.422V173.501C388.305 179.555 383.351 184.509 377.298 184.509C371.243 184.509 366.29 179.555 366.29 173.501V160.014C361.905 157.996 358.473 154.471 356.513 150.209L356.5 150.19C354.119 146.2 353.122 141.361 354.045 136.434L357.262 119.247Z" fill="#F4BE99"/>
<path fill-rule="evenodd" clip-rule="evenodd" d="M377.298 166.465C383.009 166.465 387.736 162.054 388.253 156.471C388.27 156.455 388.288 156.439 388.305 156.423V156.422C391.079 153.817 393.121 150.394 394.045 146.445C393.945 146.303 393.104 146.085 392.612 146.085C392.423 146.085 392.286 146.117 392.26 146.197C389.615 154.345 381.978 159.837 373.491 159.836C372.286 159.836 371.062 159.725 369.833 159.495C364.042 158.41 359.321 154.902 356.516 150.215C357.222 151.75 358.12 153.19 359.185 154.498C361.351 157.155 364.207 159.268 367.547 160.534C369.391 164.049 373.073 166.465 377.298 166.465Z" fill="#EFA88D"/>
<path fill-rule="evenodd" clip-rule="evenodd" d="M398.226 141.364C398.333 141.364 398.439 141.316 398.51 141.225C398.632 141.068 398.604 140.842 398.447 140.719L396.052 138.862L399.109 135.978C399.253 135.842 399.26 135.614 399.123 135.469C398.986 135.325 398.759 135.318 398.614 135.454L395.253 138.627C395.177 138.699 395.136 138.801 395.14 138.905C395.146 139.011 395.196 139.108 395.279 139.173L398.005 141.288C398.071 141.339 398.149 141.364 398.226 141.364Z" fill="#E98772"/>
<path fill-rule="evenodd" clip-rule="evenodd" d="M379.052 128.238C378.73 128.229 378.4 128.034 378.069 127.865C377.741 127.687 377.406 127.516 377.11 127.378C376.814 127.24 376.467 127.093 376.12 126.956C375.778 126.812 375.414 126.683 375.205 126.444C375 126.218 375.04 125.862 375.519 125.623C375.974 125.386 376.901 125.33 377.884 125.785C378.862 126.244 379.404 126.985 379.504 127.481C379.615 127.995 379.36 128.25 379.052 128.238Z" fill="#16171B"/>
<path fill-rule="evenodd" clip-rule="evenodd" d="M359.952 124.917C360.263 124.996 360.635 124.901 360.999 124.829C361.364 124.749 361.733 124.677 362.056 124.627C362.379 124.576 362.752 124.531 363.124 124.495C363.493 124.451 363.878 124.427 364.145 124.256C364.404 124.095 364.464 123.741 364.071 123.38C363.699 123.027 362.823 122.716 361.754 122.882C360.685 123.052 359.961 123.615 359.727 124.063C359.478 124.526 359.653 124.843 359.952 124.917Z" fill="#16171B"/>
<path fill-rule="evenodd" clip-rule="evenodd" d="M370.742 143.135C373.696 143.135 375.667 140.817 375.691 140.787C375.818 140.634 375.797 140.407 375.644 140.28C375.492 140.154 375.265 140.173 375.138 140.326C375.023 140.463 372.291 143.654 368.475 141.892C368.294 141.808 368.08 141.887 367.997 142.068C367.913 142.248 367.992 142.462 368.173 142.546C369.087 142.968 369.951 143.135 370.742 143.135Z" fill="#E98772"/>
<path fill-rule="evenodd" clip-rule="evenodd" d="M368.593 138.109C368.762 138.109 368.913 137.99 368.946 137.819C368.985 137.624 368.857 137.434 368.662 137.396L366.13 136.898C364.557 136.588 363.529 135.056 363.839 133.483C363.95 132.914 364.504 132.545 365.072 132.655C366.403 132.915 367.697 132.047 367.959 130.718L368.571 127.611C368.609 127.416 368.482 127.227 368.287 127.189C368.092 127.151 367.902 127.277 367.863 127.473L367.252 130.578C367.068 131.519 366.15 132.133 365.211 131.948C364.745 131.858 364.275 131.952 363.883 132.215C363.489 132.479 363.223 132.88 363.132 133.343C362.746 135.306 364.028 137.218 365.991 137.604L368.523 138.103L368.593 138.109Z" fill="#E98772"/>
<path fill-rule="evenodd" clip-rule="evenodd" d="M375.765 134.313C376.247 134.403 376.715 134.083 376.805 133.601L377.004 132.539C377.094 132.057 376.774 131.589 376.293 131.499C375.811 131.409 375.343 131.729 375.253 132.211L375.053 133.274C374.963 133.755 375.284 134.223 375.765 134.313Z" fill="#16171B"/>
<path fill-rule="evenodd" clip-rule="evenodd" d="M360.667 131.859C361.149 131.95 361.617 131.63 361.707 131.148L361.905 130.085C361.996 129.604 361.676 129.136 361.194 129.046C360.712 128.956 360.244 129.276 360.154 129.758L359.956 130.82C359.866 131.301 360.186 131.769 360.667 131.859Z" fill="#16171B"/>
<path fill-rule="evenodd" clip-rule="evenodd" d="M379.558 138.675C380.111 138.675 380.592 138.257 380.654 137.695C380.722 137.092 380.284 136.543 379.682 136.475L376.641 136.133C376.6 136.129 376.558 136.126 376.518 136.126C375.965 136.126 375.485 136.545 375.421 137.107C375.354 137.71 375.791 138.258 376.395 138.327L379.435 138.668C379.476 138.673 379.517 138.675 379.558 138.675Z" fill="#F2B292"/>
<path fill-rule="evenodd" clip-rule="evenodd" d="M359.115 135.455C359.668 135.455 360.149 135.036 360.212 134.475C360.28 133.872 359.842 133.323 359.239 133.255L356.198 132.914C356.157 132.909 356.116 132.906 356.075 132.906C355.523 132.906 355.042 133.325 354.979 133.886C354.911 134.49 355.349 135.038 355.952 135.106L358.992 135.448C359.033 135.452 359.074 135.455 359.115 135.455Z" fill="#F2B292"/>
<path fill-rule="evenodd" clip-rule="evenodd" d="M364.956 150.97C365.03 150.97 365.104 150.947 365.168 150.901C366.585 149.865 368.056 150.862 368.118 150.905C368.281 151.019 368.504 150.978 368.618 150.816C368.732 150.654 368.693 150.43 368.531 150.315C367.864 149.847 366.215 149.243 364.743 150.32C364.582 150.437 364.548 150.662 364.665 150.823C364.735 150.919 364.845 150.97 364.956 150.97Z" fill="#E98772"/>
<path fill-rule="evenodd" clip-rule="evenodd" d="M373.163 198.94C373.284 198.94 373.405 198.942 373.525 198.947L376.88 194.814C375.694 194.482 374.444 194.305 373.152 194.305C365.526 194.305 359.344 200.487 359.344 208.113C359.344 213.75 362.721 218.598 367.563 220.744L369.663 216.618C366.327 215.242 363.979 211.957 363.979 208.124C363.979 203.052 368.091 198.94 373.163 198.94ZM378.293 195.293L376.508 199.568C379.926 200.905 382.347 204.232 382.347 208.124C382.347 213.196 378.235 217.308 373.163 217.308C372.743 217.308 372.33 217.28 371.926 217.226L368.696 221.187C370.094 221.664 371.593 221.922 373.152 221.922C380.779 221.922 386.961 215.74 386.961 208.113C386.961 202.304 383.374 197.333 378.293 195.293Z" fill="#FF6D40"/>
<path d="M367.233 207.467L378.914 192.874L373.369 206.024L379.521 207.467L366.969 222.677L374.07 208.907L367.233 207.467Z" fill="#FF6D40"/>
<path fill-rule="evenodd" clip-rule="evenodd" d="M193.027 171.407C195.366 171.34 196.837 171.227 200.427 171.226L200.451 171.308L193.027 171.407Z" fill="#BBBAD2"/>
<path fill-rule="evenodd" clip-rule="evenodd" d="M190.065 135.177C189.843 134.664 189.614 134.201 189.381 133.809C189.686 134.258 189.903 134.643 190.048 134.927L190.003 134.961L190.065 135.177Z" fill="#CAC4D8"/>
<path fill-rule="evenodd" clip-rule="evenodd" d="M72.8067 244.535C72.8131 244.498 72.8275 244.426 72.8506 244.313C72.8304 244.414 72.8153 244.491 72.8067 244.535Z" fill="#CAC5D8"/>
<path fill-rule="evenodd" clip-rule="evenodd" d="M73.0868 243.117L73.2682 243.033L73.261 243.065C73.1465 243.099 73.0868 243.117 73.0868 243.117Z" fill="#CAC5D8"/>
<path fill-rule="evenodd" clip-rule="evenodd" d="M72.8636 244.246C72.8881 244.123 72.9162 243.979 72.945 243.834C72.9119 244.002 72.8845 244.141 72.8636 244.246Z" fill="#CAC5D8"/>
<path fill-rule="evenodd" clip-rule="evenodd" d="M72.945 243.834C73.0162 243.473 73.0868 243.117 73.0868 243.117C73.0285 243.412 72.9838 243.638 72.945 243.834Z" fill="#CAC5D8"/>
<path fill-rule="evenodd" clip-rule="evenodd" d="M106.598 227.753L106.554 227.748L106.604 227.725C106.602 227.734 106.6 227.744 106.598 227.753Z" fill="#A37A69"/>
<path fill-rule="evenodd" clip-rule="evenodd" d="M116.739 231.836L123.66 230.146L116.844 231.833L116.739 231.836Z" fill="#FFF7F5"/>
<path fill-rule="evenodd" clip-rule="evenodd" d="M120.319 156.423C117.55 153.824 115.497 150.417 114.57 146.478C114.567 146.468 114.57 146.457 114.579 146.445C115.503 150.395 117.545 153.817 120.319 156.422V156.423ZM149.439 154.498C150.504 153.19 151.402 151.75 152.108 150.215C152.113 150.207 152.118 150.199 152.123 150.19C151.414 151.735 150.511 153.183 149.439 154.498Z" fill="#563939"/>
</svg>
