<svg width="237" height="58" viewBox="0 0 237 58" fill="none" xmlns="http://www.w3.org/2000/svg">
<path fill-rule="evenodd" clip-rule="evenodd" d="M78.1499 16.1527C79.5253 12.9509 81.4136 10.0216 83.7113 7.46802L50.7218 7.46866V49.6742L83.5901 49.6746C81.3713 47.1802 79.5408 44.3326 78.1937 41.2268L62.6842 41.2264V31.1903L75.694 31.1904C75.6269 30.3488 75.5927 29.4979 75.5927 28.639C75.5927 26.837 75.7432 25.0702 76.0324 23.3504L62.6842 23.3507V16.1531L78.1499 16.1527ZM145.61 49.708V7.50245H133.512L133.513 10.9385C136.926 15.9915 138.919 22.0825 138.919 28.639C138.919 35.1955 136.926 41.2866 133.513 46.3395L133.512 49.708H145.61ZM215.086 7.50245C226.732 7.50245 236.172 16.9429 236.172 28.5883C236.172 40.2337 226.732 49.6742 215.086 49.6742C203.44 49.6742 194 40.2337 194 28.5883C194 16.9429 203.44 7.50245 215.086 7.50245ZM32.1024 31.8492L14.6319 7.46866H0V49.6742H11.4386V21.0528L31.3421 49.6742H43.5241V7.46866H32.1024V31.8492ZM215.103 16.9298C208.655 16.9298 203.428 22.1569 203.428 28.6049C203.428 35.0529 208.655 40.28 215.103 40.28C221.551 40.28 226.778 35.0529 226.778 28.6049C226.778 22.1569 221.551 16.9298 215.103 16.9298ZM194.912 16.1531V7.50245H152.976V16.1531H194.912Z" fill="white"/>
<rect x="167.912" y="15.9497" width="12.0975" height="33.7244" fill="white"/>
<path fill-rule="evenodd" clip-rule="evenodd" d="M107.378 11.6084C107.61 11.6084 107.84 11.6128 108.07 11.6217L114.491 3.71254C112.222 3.07788 109.829 2.73853 107.357 2.73853C92.763 2.73853 80.9319 14.5697 80.9319 29.1641C80.9319 39.9513 87.3954 49.2288 96.6608 53.3352L100.679 45.4392C94.295 42.8053 89.8017 36.5196 89.8017 29.1845C89.8017 19.4775 97.6708 11.6084 107.378 11.6084ZM117.196 4.6307L113.779 12.8104C120.321 15.3696 124.954 21.736 124.954 29.1845C124.954 38.8916 117.085 46.7607 107.378 46.7607C106.575 46.7607 105.785 46.7068 105.01 46.6026L98.8299 54.1835C101.505 55.0951 104.374 55.5896 107.357 55.5896C121.952 55.5896 133.783 43.7585 133.783 29.1641C133.783 18.0469 126.918 8.53306 117.196 4.6307Z" fill="#FF6D40"/>
<path d="M96.0298 27.928L118.385 0L107.771 25.1655L119.544 27.928L95.5242 57.0354L109.113 30.6823L96.0298 27.928Z" fill="#FF6D40"/>
</svg>
