<svg width="20" height="17" viewBox="0 0 20 17" fill="none" xmlns="http://www.w3.org/2000/svg">
<g id="Path 2">
<path id="Path" d="M19.3656 7.4216L12.2584 0.31424C12.0555 0.11136 11.7851 0 11.4968 0C11.2082 0 10.9379 0.11152 10.735 0.31424L10.0898 0.95968C9.88704 1.16224 9.77536 1.4328 9.77536 1.72128C9.77536 2.0096 9.88704 2.28928 10.0898 2.49184L14.236 6.6472H1.0632C0.46928 6.6472 0 7.11216 0 7.70624V8.61872C0 9.2128 0.46928 9.72464 1.0632 9.72464H14.283L10.0899 13.9032C9.8872 14.1061 9.77552 14.3693 9.77552 14.6578C9.77552 14.9459 9.8872 15.213 10.0899 15.4157L10.7352 16.059C10.9381 16.2619 11.2083 16.3725 11.497 16.3725C11.7853 16.3725 12.0557 16.2605 12.2586 16.0576L19.3658 8.9504C19.5691 8.74688 19.681 8.4752 19.6802 8.1864C19.6808 7.89664 19.5691 7.6248 19.3656 7.4216Z" fill="#FF6E43"/>
</g>
</svg>
